<svg width="78" height="105" viewBox="0 0 78 105" fill="none" xmlns="http://www.w3.org/2000/svg">
<path d="M1.51825 0.000110984C0.689885 -0.00996876 0.0101908 0.653383 0.000110984 1.48175C-0.00996876 2.31011 0.653383 2.98981 1.48175 2.99989L1.5 1.5L1.51825 0.000110984ZM65.4151 104.381C66.1779 104.704 67.0582 104.348 67.3813 103.585L72.6455 91.1536C72.9686 90.3908 72.612 89.5105 71.8492 89.1874C71.0863 88.8644 70.2061 89.2209 69.883 89.9838L65.2037 101.034L54.1536 96.3545C53.3908 96.0314 52.5105 96.388 52.1874 97.1508C51.8644 97.9137 52.2209 98.7939 52.9838 99.117L65.4151 104.381ZM1.5 1.5L1.48175 2.99989C25.7017 3.29461 43.3626 4.03279 57.8978 7.74153L58.2687 6.2881L58.6396 4.83467C43.7043 1.02384 25.6911 0.294255 1.51825 0.000110984L1.5 1.5ZM58.2687 6.2881L57.8978 7.74153C65.1145 9.5829 69.539 12.2018 71.9993 15.5808C74.4372 18.9289 75.1477 23.3043 74.296 29.142L75.7803 29.3586L77.2645 29.5751C78.1774 23.3183 77.4998 18.0384 74.4246 13.8149C71.3718 9.62221 66.1582 6.75309 58.6396 4.83467L58.2687 6.2881ZM75.7803 29.3586L74.296 29.142C73.4389 35.0164 71.0032 42.0823 68.4101 49.4447C65.8444 56.7293 63.1304 64.29 61.8747 70.9267L63.3486 71.2055L64.8224 71.4843C66.0261 65.1225 68.6455 57.807 71.2397 50.4413C73.8065 43.1534 76.357 35.7952 77.2645 29.5751L75.7803 29.3586ZM63.3486 71.2055L61.8747 70.9267C59.3621 84.2075 60.8562 94.2957 64.6097 103.563L66 103L67.3903 102.437C63.8534 93.7041 62.4166 84.2005 64.8224 71.4843L63.3486 71.2055Z" fill="#7CAECE"/>
</svg>
