<svg width="177" height="67" viewBox="0 0 177 67" fill="none" xmlns="http://www.w3.org/2000/svg">
<path d="M8.72697 2.1219C9.07024 1.36793 8.7373 0.478454 7.98333 0.135192C7.22937 -0.20807 6.33989 0.124871 5.99663 0.878835L7.3618 1.50037L8.72697 2.1219ZM18.4843 55.5004L17.9198 56.8901L18.4843 55.5004ZM176.045 56.561C176.63 55.9752 176.63 55.0255 176.045 54.4397L166.499 44.8938C165.913 44.308 164.963 44.308 164.377 44.8938C163.792 45.4795 163.792 46.4293 164.377 47.0151L172.863 55.5004L164.377 63.9856C163.792 64.5714 163.792 65.5212 164.377 66.107C164.963 66.6928 165.913 66.6928 166.499 66.107L176.045 56.561ZM7.3618 1.50037L5.99663 0.878835C1.47292 10.815 -0.984874 22.506 0.372769 32.8664C1.73792 43.2841 6.99489 52.4525 17.9198 56.8901L18.4843 55.5004L19.0488 54.1106C9.35027 50.1712 4.60705 42.0896 3.34734 32.4766C2.08012 22.8062 4.3728 11.6857 8.72697 2.1219L7.3618 1.50037ZM18.4843 55.5004L17.9198 56.8901C28.2536 61.0876 36.255 62.0644 43.0901 61.0546C49.9115 60.0468 55.4095 57.081 60.7279 53.7042C71.367 46.9492 81.4477 38.5004 100.984 38.5004V37.0004V35.5004C80.405 35.5004 69.5464 44.5515 59.1199 51.1715C53.9055 54.4823 48.8391 57.1727 42.6516 58.0868C36.4778 58.9989 29.0257 58.1632 19.0488 54.1106L18.4843 55.5004ZM100.984 37.0004V38.5004C105.656 38.5004 111.408 39.614 117.78 41.3389C124.135 43.0594 130.998 45.3569 137.881 47.6721C144.744 49.9807 151.63 52.308 157.96 54.0556C164.27 55.7981 170.149 57.0004 174.984 57.0004V55.5004V54.0004C170.569 54.0004 165.01 52.8901 158.758 51.1638C152.525 49.4427 145.724 47.1451 138.837 44.8286C131.97 42.5188 125.021 40.1913 118.564 38.4431C112.122 36.6993 106.062 35.5004 100.984 35.5004V37.0004Z" fill="#7CAECE"/>
</svg>
