<svg width="143" height="148" viewBox="0 0 143 148" fill="none" xmlns="http://www.w3.org/2000/svg">
<path d="M117.615 1.26908C117.488 0.450553 116.721 -0.109487 115.902 0.0181979C115.084 0.145882 114.524 0.912939 114.651 1.73147L116.133 1.50027L117.615 1.26908ZM140.844 24.9284L139.35 24.7965L139.339 24.9191L139.348 25.0418L140.844 24.9284ZM140.697 30.6655L139.223 30.3875L140.697 30.6655ZM130.806 43.522L129.898 42.3282L129.843 42.3697L129.793 42.4159L130.806 43.522ZM123.821 47.9266L123.159 46.5804L123.149 46.5855L123.821 47.9266ZM32.8353 69.0472L32.241 67.6699L32.2082 67.6841L32.1762 67.6997L32.8353 69.0472ZM17.0758 83.1692L18.3221 84.0039V84.0039L17.0758 83.1692ZM11.2134 96.2235L9.79577 95.7334L11.2134 96.2235ZM8.01008 119.5L6.51091 119.55L8.01008 119.5ZM12.874 142.824L14.2945 142.342L14.2771 142.291L14.2562 142.242L12.874 142.824ZM13.354 147.589C14.1172 147.911 14.9971 147.554 15.3193 146.79L20.5697 134.353C20.8919 133.59 20.5344 132.71 19.7712 132.388C19.008 132.066 18.1281 132.423 17.8059 133.187L13.1388 144.242L2.0836 139.575C1.32039 139.253 0.440503 139.61 0.118308 140.373C-0.203889 141.136 0.15362 142.016 0.916824 142.339L13.354 147.589ZM116.133 1.50027L114.651 1.73147C114.752 2.379 115.179 2.77601 115.384 2.9454C115.63 3.14859 115.914 3.31116 116.171 3.44105C116.692 3.70446 117.379 3.96919 118.122 4.2367C119.68 4.79754 121.59 5.40946 123.747 6.23511C128.076 7.89266 132.616 10.1418 134.911 13.3696L136.134 12.5002L137.356 11.6308C134.485 7.59452 129.141 5.08778 124.82 3.43343C122.651 2.60313 120.544 1.9201 119.138 1.41396C118.399 1.14796 117.866 0.936197 117.524 0.763461C117.35 0.675283 117.291 0.629872 117.295 0.63309C117.3 0.636967 117.352 0.679771 117.414 0.766555C117.478 0.854754 117.577 1.02446 117.615 1.26908L116.133 1.50027ZM136.134 12.5002L134.911 13.3696C137.382 16.8436 138.481 19.7747 138.968 21.791C139.213 22.8012 139.305 23.5873 139.338 24.1032C139.354 24.3613 139.356 24.5519 139.354 24.6694C139.353 24.7282 139.351 24.7687 139.35 24.7901C139.349 24.8008 139.349 24.8068 139.349 24.8079C139.349 24.8084 139.349 24.8078 139.349 24.8059C139.349 24.8049 139.349 24.8037 139.349 24.8021C139.35 24.8014 139.35 24.8005 139.35 24.7996C139.35 24.7991 139.35 24.7983 139.35 24.7981C139.35 24.7973 139.35 24.7965 140.844 24.9284C142.338 25.0603 142.338 25.0595 142.338 25.0586C142.338 25.0583 142.339 25.0575 142.339 25.0568C142.339 25.0556 142.339 25.0543 142.339 25.0529C142.339 25.05 142.339 25.0469 142.34 25.0435C142.34 25.0366 142.341 25.0284 142.342 25.0189C142.343 25.0001 142.344 24.9761 142.346 24.9473C142.349 24.8895 142.352 24.8119 142.353 24.7153C142.356 24.522 142.353 24.2525 142.332 23.9129C142.288 23.2335 142.172 22.2746 141.884 21.0858C141.308 18.7039 140.052 15.421 137.356 11.6308L136.134 12.5002ZM140.844 24.9284C139.348 25.0418 139.348 25.0417 139.348 25.0416C139.348 25.0416 139.348 25.0415 139.348 25.0415C139.348 25.0415 139.348 25.0415 139.348 25.0415C139.348 25.0416 139.348 25.0419 139.348 25.0425C139.349 25.0435 139.349 25.0454 139.349 25.0481C139.349 25.0536 139.35 25.0623 139.351 25.0741C139.352 25.0977 139.355 25.1338 139.358 25.1813C139.364 25.2761 139.373 25.416 139.381 25.5915C139.399 25.943 139.419 26.4342 139.426 26.9906C139.441 28.1319 139.401 29.4412 139.223 30.3875L140.697 30.6655L142.171 30.9435C142.408 29.6874 142.441 28.1282 142.426 26.9516C142.418 26.349 142.397 25.8189 142.378 25.4388C142.368 25.2485 142.359 25.095 142.352 24.988C142.348 24.9345 142.345 24.8925 142.343 24.8633C142.342 24.8487 142.341 24.8372 142.341 24.8292C142.341 24.8251 142.34 24.8219 142.34 24.8195C142.34 24.8184 142.34 24.8174 142.34 24.8166C142.34 24.8163 142.34 24.8159 142.34 24.8157C142.34 24.8155 142.34 24.8154 142.34 24.8153C142.34 24.8152 142.34 24.815 140.844 24.9284ZM140.697 30.6655L139.223 30.3875C138.723 33.0366 136.532 35.9771 134.226 38.3922C133.106 39.5659 132.017 40.5554 131.208 41.2516C130.804 41.599 130.472 41.8716 130.243 42.0559C130.128 42.148 130.04 42.2179 129.981 42.2639C129.951 42.2869 129.929 42.3039 129.915 42.3147C129.908 42.3201 129.903 42.3239 129.9 42.3262C129.899 42.3273 129.898 42.328 129.898 42.3284C129.897 42.3286 129.897 42.3286 129.897 42.3286C129.897 42.3286 129.897 42.3285 129.897 42.3285C129.898 42.3284 129.898 42.3282 130.806 43.522C131.714 44.7158 131.714 44.7156 131.715 44.7154C131.715 44.7153 131.715 44.715 131.715 44.7148C131.716 44.7144 131.717 44.7138 131.718 44.7132C131.719 44.7119 131.721 44.7103 131.724 44.7082C131.73 44.704 131.737 44.6983 131.747 44.6909C131.766 44.6763 131.793 44.6553 131.827 44.6282C131.897 44.574 131.997 44.4953 132.123 44.3939C132.375 44.1912 132.733 43.8971 133.165 43.5256C134.027 42.7838 135.191 41.7263 136.396 40.464C138.742 38.0071 141.496 34.5193 142.171 30.9435L140.697 30.6655ZM130.806 43.522L129.793 42.4159C128.779 43.3441 127.157 44.3768 125.708 45.2095C124.999 45.6171 124.358 45.9616 123.895 46.2041C123.664 46.3251 123.477 46.4203 123.35 46.4848C123.286 46.517 123.237 46.5414 123.205 46.5576C123.189 46.5657 123.177 46.5717 123.169 46.5755C123.165 46.5774 123.162 46.5788 123.161 46.5796C123.16 46.58 123.159 46.5803 123.159 46.5804C123.159 46.5805 123.159 46.5805 123.159 46.5805C123.159 46.5805 123.159 46.5805 123.159 46.5805C123.159 46.5805 123.159 46.5804 123.821 47.9266C124.483 49.2727 124.483 49.2727 124.483 49.2726C124.483 49.2726 124.483 49.2725 124.483 49.2724C124.483 49.2723 124.484 49.2721 124.484 49.2719C124.485 49.2714 124.486 49.2709 124.488 49.2702C124.491 49.2688 124.495 49.2668 124.5 49.2643C124.51 49.2592 124.524 49.252 124.543 49.2427C124.581 49.224 124.635 49.1968 124.704 49.1618C124.843 49.0917 125.041 48.9902 125.286 48.862C125.775 48.606 126.452 48.2423 127.203 47.8106C128.674 46.965 130.545 45.7954 131.819 44.6281L130.806 43.522ZM123.821 47.9266L123.149 46.5855C120.882 47.7213 118.342 48.886 105.066 51.6362L105.37 53.105L105.674 54.5738C119.015 51.8102 121.866 50.5834 124.493 49.2677L123.821 47.9266ZM105.37 53.105L105.066 51.6362C98.4266 53.0114 89.1542 54.7683 79.7485 56.5531C70.3524 58.3361 60.8251 60.1467 53.7034 61.6248L54.0083 63.0935L54.3131 64.5622C61.4042 63.0904 70.9033 61.2851 80.3078 59.5005C89.7025 57.7178 99.0046 55.9554 105.674 54.5738L105.37 53.105ZM54.0083 63.0935L53.7034 61.6248C46.5455 63.1105 41.2021 64.6122 37.637 65.7473C35.8544 66.3148 34.5165 66.7907 33.6187 67.1271C33.1697 67.2953 32.8309 67.4286 32.6014 67.5211C32.4867 67.5673 32.3994 67.6034 32.3393 67.6284C32.3093 67.6409 32.2861 67.6507 32.2697 67.6577C32.2615 67.6612 32.255 67.6639 32.2502 67.666C32.2479 67.667 32.2459 67.6678 32.2443 67.6685C32.2436 67.6688 32.2429 67.6691 32.2423 67.6694C32.2421 67.6695 32.2417 67.6696 32.2416 67.6697C32.2413 67.6698 32.241 67.6699 32.8353 69.0472C33.4297 70.4244 33.4295 70.4245 33.4292 70.4246C33.4292 70.4246 33.429 70.4247 33.429 70.4247C33.4288 70.4248 33.4288 70.4248 33.4289 70.4247C33.429 70.4247 33.4296 70.4244 33.4306 70.424C33.4326 70.4231 33.4364 70.4215 33.4418 70.4193C33.4526 70.4147 33.4702 70.4072 33.4946 70.397C33.5435 70.3767 33.6195 70.3453 33.7229 70.3036C33.9296 70.2203 34.2456 70.0959 34.6712 69.9364C35.5226 69.6174 36.813 69.158 38.5471 68.6059C42.0152 67.5017 47.2583 66.0265 54.3131 64.5622L54.0083 63.0935ZM32.8353 69.0472L32.1762 67.6997C26.4535 70.4992 20.5762 75.2477 15.8295 82.3344L17.0758 83.1692L18.3221 84.0039C22.7732 77.3584 28.2446 72.9627 33.4945 70.3946L32.8353 69.0472ZM17.0758 83.1692L15.8295 82.3344C12.5913 87.1691 11.1938 91.6895 9.79577 95.7334L11.2134 96.2235L12.6311 96.7136C14.0593 92.5824 15.3403 88.4556 18.3221 84.0039L17.0758 83.1692ZM11.2134 96.2235L9.79577 95.7334C7.30256 102.945 6.20088 110.216 6.51091 119.55L8.01008 119.5L9.50926 119.45C9.21008 110.443 10.2703 103.542 12.6311 96.7136L11.2134 96.2235ZM8.01008 119.5L6.51091 119.55C6.67026 124.347 7.68394 129.749 8.75719 134.189C9.82695 138.614 10.9881 142.212 11.4918 143.407L12.874 142.824L14.2562 142.242C13.8461 141.269 12.7297 137.854 11.6732 133.484C10.6202 129.128 9.6588 123.952 9.50926 119.45L8.01008 119.5ZM12.874 142.824L11.4534 143.306C11.6085 143.763 11.7006 144.152 11.8627 144.739C12.0191 145.306 12.2159 145.955 12.5477 146.772L13.9374 146.207L15.327 145.642C15.0529 144.968 14.8915 144.437 14.7545 143.941C14.6232 143.465 14.4865 142.909 14.2945 142.342L12.874 142.824Z" fill="#7CAECE"/>
</svg>
