<svg width="578" height="595" viewBox="0 0 578 595" fill="none" xmlns="http://www.w3.org/2000/svg">
<path d="M268.332 222.038C314.113 220.662 352.32 256.702 353.605 302.475V302.476C354.883 347.893 319.337 385.783 274.058 387.542L272.986 387.577C227.681 388.763 189.912 353.338 188.07 308.199L188.033 307.131C186.75 261.481 222.674 223.41 268.332 222.038Z" fill="#E1F2FF" stroke="#0A2756" stroke-width="10"/>
<path d="M269.048 240.03C304.978 238.95 334.965 267.24 335.974 303.173C336.985 339.107 308.636 369.037 272.7 369.977C236.864 370.915 207.034 342.661 206.026 306.827C205.019 270.992 233.214 241.107 269.048 240.03Z" fill="#ADD8FB"/>
<path d="M228 354.238C228.845 348.465 229.708 343.783 232.858 338.809C246.276 317.622 278.7 315 298.452 327.601C305.425 331.961 310.506 338.811 312.682 346.789C313.449 349.623 313.386 351.504 314 354.238C288.941 375.389 253.28 375.118 228 354.238Z" fill="#0A2756"/>
<path d="M269.148 266.087C282.01 264.988 293.35 274.469 294.544 287.32C295.741 300.17 286.342 311.58 273.498 312.87C260.517 314.175 248.959 304.657 247.752 291.669C246.544 278.682 256.149 267.197 269.148 266.087Z" fill="#0A2756"/>
<path d="M169.594 344.049C172.985 343.646 178.248 344.006 181.103 349.182L181.104 349.183C185.97 358.007 190.283 364.62 197.153 371.794C201.692 376.46 210.132 382.05 217.861 386.646C221.648 388.899 225.131 390.836 227.667 392.209C228.934 392.895 229.963 393.439 230.671 393.81C231.025 393.995 231.298 394.138 231.481 394.232C231.573 394.28 231.643 394.315 231.688 394.338C231.71 394.35 231.727 394.358 231.738 394.364C231.743 394.366 231.747 394.369 231.749 394.37L231.751 394.371L231.895 394.444L232.035 394.527L242.457 400.722C242.467 400.727 242.479 400.734 242.491 400.74C242.602 400.794 242.785 400.88 243.031 400.987C243.526 401.203 244.256 401.494 245.141 401.768C246.971 402.333 249.167 402.733 251.23 402.493C253.807 402.194 256.237 402.727 258.267 404.151C260.192 405.501 261.334 407.357 262.028 408.991C263.358 412.127 263.559 415.747 263.635 417.686L263.634 417.686C264.112 429.745 262.511 441.883 261.438 453.176L261.438 453.178C260.728 460.623 260.252 469.744 258.522 477.676C257.255 483.563 255.152 489.237 252.279 494.528C245.63 506.777 234.065 516.687 220.436 520.68C216.115 521.979 211.633 522.673 207.119 522.735L207.098 522.736L207.078 522.737C202.408 522.765 196.572 522.052 192.419 521.662L192.408 521.661L170.186 519.527L170.161 519.525C160.672 518.565 145.17 517.629 135.609 515.481L135.609 515.482C127.356 513.629 119.389 510.671 111.927 506.684L111.907 506.673L111.887 506.662C97.6637 498.893 85.5429 488.213 75.8037 475.339L75.8038 475.338C72.0184 470.335 68.7439 464.835 65.6561 459.89L65.6527 459.885C59.9136 450.667 54.589 441.197 49.6938 431.504L49.6854 431.489C46.1109 424.352 41.3363 415.765 38.645 406.928C35.8943 397.895 35.0798 387.929 39.8474 377.892C40.9276 375.617 42.6698 373.528 43.8956 372.185C44.5488 371.47 45.1452 370.871 45.5813 370.448C45.8002 370.235 45.9817 370.065 46.1129 369.943C46.1785 369.882 46.2325 369.833 46.2719 369.797C46.2916 369.779 46.3076 369.764 46.3203 369.753C46.3264 369.747 46.3319 369.742 46.3363 369.738C46.3385 369.736 46.341 369.735 46.3427 369.733C46.3436 369.732 46.3442 369.731 46.3449 369.73L46.346 369.73C46.3468 369.729 46.3781 369.764 49.161 372.871L46.3471 369.729L46.4211 369.662L46.4976 369.6C47.7158 368.593 48.5452 367.916 50.5381 366.845L50.751 366.73L50.9738 366.637L52.9055 371.248C50.9739 366.637 50.9755 366.636 50.9769 366.635L50.9799 366.634C50.9817 366.634 50.9839 366.633 50.986 366.632C50.9903 366.63 50.9952 366.628 51.0003 366.626C51.0107 366.621 51.0233 366.616 51.0371 366.61C51.065 366.599 51.0996 366.585 51.1412 366.568C51.2246 366.535 51.3354 366.492 51.4721 366.441C51.7454 366.339 52.1237 366.203 52.5951 366.05C53.5359 365.745 54.86 365.364 56.4747 365.03C59.6807 364.366 64.1706 363.856 69.1405 364.58L69.1395 364.58C73.4576 365.207 78.6897 364.769 83.6663 364.046C104.954 360.01 126.403 355.58 147.175 349.999L161.027 346.223C162.596 345.786 166.392 344.43 169.594 344.049ZM242.383 400.685C242.384 400.686 242.384 400.686 242.385 400.687C242.383 400.685 242.381 400.684 242.379 400.683C242.376 400.681 242.373 400.681 242.372 400.68C242.374 400.681 242.377 400.682 242.383 400.685Z" fill="#FFE377" stroke="#0A2756" stroke-width="10"/>
<path d="M197.632 222.768C198.998 225.897 200.174 231.041 196.044 235.269L196.044 235.27C189.002 242.479 183.917 248.518 179.035 257.168C175.878 262.862 172.966 272.558 170.799 281.284C169.737 285.561 168.889 289.455 168.307 292.28C168.016 293.691 167.792 294.833 167.642 295.618C167.567 296.01 167.509 296.313 167.472 296.516C167.453 296.617 167.439 296.694 167.43 296.744C167.426 296.769 167.422 296.788 167.42 296.799C167.419 296.805 167.418 296.809 167.418 296.812L167.417 296.814L167.388 296.973L167.349 297.131L164.431 308.898C164.429 308.91 164.426 308.923 164.423 308.936C164.404 309.058 164.374 309.258 164.342 309.524C164.279 310.061 164.211 310.844 164.205 311.77C164.192 313.686 164.444 315.903 165.27 317.809C166.301 320.19 166.493 322.67 165.716 325.024C164.979 327.258 163.533 328.888 162.169 330.024C159.551 332.204 156.144 333.442 154.309 334.075L154.309 334.074C142.902 338.016 130.819 339.991 119.698 342.226L119.696 342.227C112.364 343.698 103.495 345.878 95.4014 346.514C89.3984 347.002 83.3591 346.629 77.4641 345.406C63.8159 342.58 50.9872 334.372 43.226 322.479C40.7346 318.717 38.7752 314.627 37.4106 310.323L37.4037 310.304L37.3979 310.285C36.0215 305.822 35.0172 300.029 34.1905 295.94L34.1884 295.93L29.8106 274.039L29.8056 274.014C27.9828 264.653 24.3991 249.541 23.6931 239.768L23.6921 239.768C23.081 231.331 23.6114 222.85 25.2723 214.554L25.2767 214.531L25.2812 214.509C28.6087 198.648 35.3309 183.958 44.8425 170.914L44.8434 170.914C48.5388 165.845 52.8582 161.12 56.6996 156.736L56.7036 156.731C63.8703 148.573 71.3975 140.739 79.2629 133.252L79.2743 133.24C85.0741 127.756 91.9155 120.703 99.5984 115.573C107.451 110.33 116.756 106.671 127.743 108.334C130.233 108.711 132.737 109.775 134.376 110.561C135.249 110.98 135.996 111.378 136.527 111.673C136.793 111.821 137.009 111.945 137.163 112.036C137.241 112.081 137.303 112.119 137.349 112.146C137.372 112.16 137.391 112.171 137.405 112.179C137.413 112.184 137.419 112.188 137.424 112.191C137.426 112.192 137.429 112.194 137.431 112.195C137.432 112.196 137.433 112.196 137.434 112.197L137.435 112.197C137.435 112.198 137.412 112.238 135.241 115.8L137.436 112.198L137.521 112.25L137.603 112.305C138.919 113.18 139.807 113.779 141.408 115.377L141.579 115.548L141.733 115.734L137.876 118.916C141.733 115.734 141.734 115.736 141.735 115.737L141.737 115.739C141.738 115.741 141.74 115.743 141.741 115.744C141.744 115.748 141.748 115.752 141.751 115.756C141.758 115.765 141.767 115.776 141.776 115.787C141.795 115.811 141.819 115.84 141.847 115.875C141.903 115.945 141.976 116.039 142.064 116.155C142.241 116.387 142.48 116.71 142.763 117.117C143.327 117.929 144.074 119.087 144.861 120.536C146.423 123.413 148.209 127.565 148.952 132.532L148.951 132.531C149.599 136.846 151.529 141.728 153.66 146.284C163.675 165.497 174.114 184.751 185.458 203.024L193.076 215.195C193.947 216.57 196.342 219.812 197.632 222.768ZM164.444 308.817C164.444 308.818 164.444 308.819 164.444 308.82C164.444 308.817 164.445 308.814 164.445 308.812C164.446 308.809 164.446 308.806 164.446 308.805C164.446 308.807 164.445 308.811 164.444 308.817Z" fill="#FEA53A" stroke="#0A2756" stroke-width="10"/>
<path d="M103.447 227.735C114.161 226.953 123.53 229.366 128.037 240.099C129.374 239.596 130.749 239.463 132.16 239.322C139.61 238.579 147.085 241.699 150.016 248.971C150.595 250.391 150.978 251.882 151.153 253.405C151.589 257.123 150.94 262.027 151.303 265.457C152.06 272.607 143.518 273.339 143.712 266.573C144.006 256.376 145.62 242.875 130.166 246.595C130.279 252.421 130.157 258.352 130.225 264.185C130.247 266.015 130.437 268.804 129.238 270.288C128.725 270.919 127.976 271.312 127.165 271.378C125.229 271.514 124.268 270.782 122.871 269.657C122.481 266.719 122.799 263.105 122.709 260.121C122.389 249.509 125.403 240.047 113.095 235.57C111.185 235.209 109.334 234.956 107.386 234.988C103.69 235.051 100.224 236.244 97.6275 238.972C93.3416 243.475 93.7137 249.233 93.6905 254.998C93.6753 258.718 93.7493 262.431 93.8005 266.151C93.8202 267.575 93.855 269.349 92.7254 270.391C92.0842 270.982 90.9659 271.105 90.1389 271.095C89.0481 271.083 87.7793 270.891 87.0517 269.967C85.839 268.428 86.4171 249.918 86.536 246.885C84.333 246.485 81.3196 245.833 79.1016 246.468C69.9708 249.083 72.9764 258.461 72.6331 265.54C72.6045 266.858 72.8259 268.821 72.0267 269.965C70.6698 271.906 67.7695 271.214 66.1347 270.204C64.8422 267.587 65.1171 253.849 65.881 250.781C66.8426 246.844 69.3591 243.465 72.8562 241.416C77.3103 238.843 83.3103 238.742 88.1812 240.027C88.6093 238.963 89.1339 237.94 89.7481 236.971C92.8713 232.127 97.8605 228.956 103.447 227.735Z" fill="#0A2756"/>
<path d="M107.816 196.357C115.417 196.023 121.873 201.862 122.301 209.456C122.729 217.051 116.97 223.578 109.38 224.1C104.386 224.444 99.5925 222.075 96.8323 217.899C94.0718 213.724 93.7712 208.387 96.0446 203.928C98.3184 199.468 102.815 196.576 107.816 196.357Z" fill="#0A2756"/>
<path d="M107.394 204.103C110.876 203.503 114.186 205.833 114.797 209.312C115.407 212.791 113.088 216.108 109.61 216.729C106.117 217.353 102.782 215.021 102.169 211.527C101.556 208.033 103.898 204.706 107.394 204.103Z" fill="#FFCA8B"/>
<path d="M80.6487 215.866C85.9861 215.017 91.0089 218.631 91.8983 223.961C92.7879 229.29 89.211 234.34 83.8873 235.27C78.506 236.21 73.389 232.587 72.4898 227.199C71.5909 221.812 75.2538 216.724 80.6487 215.866Z" fill="#0A2756"/>
<path d="M132.774 216.077C137.989 215.282 142.873 218.832 143.725 224.038C144.576 229.243 141.078 234.165 135.881 235.072C132.469 235.669 129 234.386 126.797 231.713C124.593 229.041 123.996 225.391 125.233 222.156C126.47 218.921 129.349 216.599 132.774 216.077Z" fill="#0A2756"/>
<path d="M325.981 208.965C323.507 211.319 319.075 214.181 313.69 211.745L313.688 211.745C304.508 207.591 297.094 204.876 287.296 203.243C280.867 202.222 270.76 202.798 261.818 203.744C257.436 204.207 253.487 204.741 250.632 205.159C249.207 205.368 248.057 205.549 247.268 205.675C246.874 205.739 246.57 205.788 246.366 205.822C246.264 205.839 246.187 205.853 246.137 205.861C246.112 205.865 246.094 205.869 246.082 205.871C246.077 205.872 246.072 205.872 246.07 205.873L246.068 205.873L245.908 205.9L245.746 205.918L233.69 207.196C233.678 207.198 233.665 207.199 233.652 207.202C233.531 207.225 233.332 207.265 233.071 207.327C232.546 207.45 231.787 207.655 230.914 207.965C229.109 208.608 227.112 209.602 225.602 211.029C223.717 212.812 221.452 213.84 218.974 213.915C216.623 213.985 214.597 213.183 213.063 212.289C210.12 210.574 207.792 207.795 206.57 206.287L206.571 206.287C198.969 196.914 192.984 186.233 187.082 176.545L187.081 176.543C183.192 170.155 178.113 162.565 174.75 155.176C172.24 149.701 170.527 143.898 169.661 137.94C167.653 124.148 170.983 109.287 179.508 97.9285C182.192 94.3016 185.366 91.0624 188.945 88.3092L188.961 88.296L188.976 88.2842C192.701 85.4654 197.802 82.5419 201.361 80.3679L201.37 80.3624L220.447 68.7675L220.469 68.7543C228.644 63.8422 241.621 55.3103 250.565 51.3069L250.564 51.306C258.284 47.8487 266.437 45.4487 274.801 44.1747L274.824 44.1711L274.846 44.1679C290.889 41.8748 306.992 43.1724 322.501 47.654L322.501 47.6548C328.529 49.3954 334.444 51.8404 339.878 53.9521L339.884 53.9543C349.999 57.9017 359.934 62.2989 369.658 67.1321L369.674 67.1387C376.81 70.7152 385.775 74.7348 393.222 80.2021C400.833 85.79 407.452 93.2848 409.643 104.179C410.139 106.647 409.995 109.364 409.816 111.173C409.721 112.137 409.603 112.974 409.507 113.574C409.459 113.876 409.415 114.121 409.383 114.297C409.367 114.385 409.353 114.456 409.343 114.509C409.338 114.535 409.334 114.557 409.331 114.573C409.329 114.582 409.328 114.589 409.327 114.594C409.326 114.597 409.325 114.6 409.325 114.602C409.324 114.604 409.325 114.605 409.325 114.606L409.324 114.607C409.324 114.608 409.278 114.599 405.188 113.776L409.324 114.609L409.304 114.706L409.28 114.802C408.907 116.338 408.648 117.377 407.694 119.428L407.591 119.647L407.469 119.855L403.161 117.318C407.469 119.855 407.468 119.857 407.468 119.858L407.466 119.861C407.465 119.862 407.463 119.864 407.462 119.866C407.46 119.87 407.457 119.875 407.455 119.88C407.449 119.89 407.442 119.901 407.434 119.914C407.419 119.94 407.399 119.972 407.376 120.01C407.329 120.087 407.266 120.188 407.187 120.31C407.03 120.556 406.808 120.891 406.522 121.296C405.951 122.104 405.118 123.201 404.025 124.436C401.855 126.887 398.564 129.984 394.15 132.379L394.151 132.379C390.316 134.462 386.388 137.945 382.834 141.503C368.2 157.481 353.673 173.871 340.376 190.777L331.541 202.095C330.547 203.384 328.318 206.743 325.981 208.965ZM233.771 207.18C233.77 207.181 233.769 207.181 233.768 207.181C233.771 207.181 233.774 207.18 233.776 207.18C233.779 207.179 233.781 207.178 233.782 207.178C233.781 207.178 233.777 207.179 233.771 207.18Z" fill="#61C0C3" stroke="#0A2756" stroke-width="10"/>
<path fill-rule="evenodd" clip-rule="evenodd" d="M266.248 93.6476C272.88 93.7477 279.706 93.704 286.476 93.6607C289.673 93.6403 292.858 93.6199 296.004 93.6148C295.997 93.0798 295.971 92.5379 295.946 91.9999C295.808 89.089 295.676 86.2933 298.557 85.3434C304.112 84.5452 304.015 88.4166 303.915 92.4571C303.905 92.8434 303.895 93.2312 303.891 93.6166V93.6909C304.455 93.6817 305.036 93.662 305.627 93.642C309.231 93.5199 313.196 93.3856 316.06 95.5365C319.638 98.2238 319.496 102.262 319.354 106.324C319.329 107.037 319.304 107.751 319.299 108.458C319.259 112.692 319.254 116.926 319.286 121.16L319.35 145.104C319.35 146.164 319.381 147.272 319.413 148.4C319.641 156.379 319.897 165.387 309.219 165.833L269.181 165.902C267.69 165.902 266.167 165.919 264.631 165.936C259.762 165.989 254.746 166.044 250.069 165.594C244.004 165.01 242.027 159.171 242 153.985L242.045 117.897C242.047 116.831 242.043 115.727 242.038 114.6C242.02 109.905 242.001 104.812 242.409 100.366C242.708 98.7247 243.534 97.3277 244.718 96.1761C247.638 93.3329 252.282 93.4746 256.349 93.5988C257.04 93.6199 257.714 93.6405 258.361 93.6458C258.354 93.1109 258.328 92.569 258.303 92.0311C258.165 89.1202 258.033 86.3243 260.914 85.3744C266.469 84.5762 266.372 88.4476 266.272 92.4882C266.262 92.8744 266.252 93.2622 266.248 93.6476ZM259 124H265C266.105 124 267 124.895 267 126V131C267 132.105 266.105 133 265 133H259C257.895 133 257 132.105 257 131V126C257 124.895 257.895 124 259 124ZM283 124H277C275.895 124 275 124.895 275 126V131C275 132.105 275.895 133 277 133H283C284.105 133 285 132.105 285 131V126C285 124.895 284.105 124 283 124ZM295 124H301C302.105 124 303 124.895 303 126V131C303 132.105 302.105 133 301 133H295C293.895 133 293 132.105 293 131V126C293 124.895 293.895 124 295 124ZM301 141H295C293.895 141 293 141.895 293 143V148C293 149.105 293.895 150 295 150H301C302.105 150 303 149.105 303 148V143C303 141.895 302.105 141 301 141ZM277 141H283C284.105 141 285 141.895 285 143V148C285 149.105 284.105 150 283 150H277C275.895 150 275 149.105 275 148V143C275 141.895 275.895 141 277 141ZM265 141H259C257.895 141 257 141.895 257 143V148C257 149.105 257.895 150 259 150H265C266.105 150 267 149.105 267 148V143C267 141.895 266.105 141 265 141Z" fill="#0A2756"/>
<path d="M265 141H259C257.895 141 257 141.895 257 143V148C257 149.105 257.895 150 259 150H265C266.105 150 267 149.105 267 148V143C267 141.895 266.105 141 265 141Z" fill="#0A2756"/>
<path d="M259 124H265C266.105 124 267 124.895 267 126V131C267 132.105 266.105 133 265 133H259C257.895 133 257 132.105 257 131V126C257 124.895 257.895 124 259 124Z" fill="#0A2756"/>
<path d="M249.058 114.563C270.158 114.472 291.258 114.501 312.36 114.651L312.42 140.37C312.45 145.362 312.607 150.64 312.327 155.625C312.279 156.455 311.961 157.038 311.509 157.718C310.787 158.233 310.1 158.708 309.191 158.743C305.806 158.87 302.338 158.829 298.952 158.821L280.461 158.79L262.684 158.806C259.323 158.814 255.965 158.881 252.607 158.7C251.346 158.806 249.375 157.436 249.266 156.095C248.893 151.503 249.086 146.554 249.093 141.931L249.058 114.563Z" fill="#61C0C3"/>
<path d="M259 124H265C266.105 124 267 124.895 267 126V131C267 132.105 266.105 133 265 133H259C257.895 133 257 132.105 257 131V126C257 124.895 257.895 124 259 124Z" fill="#0A2756"/>
<path d="M283 124H277C275.895 124 275 124.895 275 126V131C275 132.105 275.895 133 277 133H283C284.105 133 285 132.105 285 131V126C285 124.895 284.105 124 283 124Z" fill="#0A2756"/>
<path d="M295 124H301C302.105 124 303 124.895 303 126V131C303 132.105 302.105 133 301 133H295C293.895 133 293 132.105 293 131V126C293 124.895 293.895 124 295 124Z" fill="#0A2756"/>
<path d="M301 141H295C293.895 141 293 141.895 293 143V148C293 149.105 293.895 150 295 150H301C302.105 150 303 149.105 303 148V143C303 141.895 302.105 141 301 141Z" fill="#0A2756"/>
<path d="M277 141H283C284.105 141 285 141.895 285 143V148C285 149.105 284.105 150 283 150H277C275.895 150 275 149.105 275 148V143C275 141.895 275.895 141 277 141Z" fill="#0A2756"/>
<path d="M265 141H259C257.895 141 257 141.895 257 143V148C257 149.105 257.895 150 259 150H265C266.105 150 267 149.105 267 148V143C267 141.895 266.105 141 265 141Z" fill="#0A2756"/>
<path d="M297.387 101H303.387C303.72 102.167 304.187 104.8 303.387 106C302.587 107.2 298.256 107.122 297.387 106C296.517 104.878 297.387 101 297.387 101Z" fill="#61C0C3"/>
<path d="M259.387 101H265.387C265.72 102.167 266.187 104.8 265.387 106C264.587 107.2 260.256 107.122 259.387 106C258.517 104.878 259.387 101 259.387 101Z" fill="#61C0C3"/>
<path d="M372.364 329.291C369.405 327.585 365.403 324.147 366.212 318.292L366.212 318.291C367.593 308.309 368.094 300.43 366.881 290.571C366.036 284.116 362.618 274.587 359.176 266.281C357.489 262.21 355.857 258.574 354.646 255.956C354.042 254.648 353.543 253.596 353.197 252.876C353.025 252.516 352.891 252.238 352.801 252.053C352.756 251.96 352.721 251.89 352.699 251.844C352.687 251.821 352.679 251.805 352.674 251.794C352.671 251.789 352.67 251.785 352.669 251.783L352.668 251.781L352.596 251.635L352.534 251.485L347.889 240.286C347.884 240.276 347.879 240.264 347.872 240.251C347.816 240.142 347.721 239.963 347.588 239.73C347.321 239.261 346.909 238.591 346.364 237.842C345.236 236.294 343.716 234.66 341.92 233.618C339.675 232.316 338.047 230.434 337.273 228.079C336.538 225.845 336.733 223.675 337.155 221.951C337.966 218.642 339.971 215.621 341.07 214.022L341.07 214.023C347.903 204.075 356.448 195.306 364.065 186.9L364.066 186.898C369.089 181.358 374.927 174.334 381.059 169.014C385.597 165.054 390.677 161.766 396.144 159.246C408.801 153.41 423.997 152.389 437.306 157.343C441.545 158.888 445.552 161.014 449.207 163.664L449.224 163.676L449.24 163.688C452.999 166.46 457.249 170.522 460.343 173.319L460.351 173.327L476.879 188.332L476.898 188.349C483.927 194.796 495.789 204.821 502.164 212.262L502.165 212.261C507.669 218.684 512.282 225.821 515.876 233.481L515.886 233.501L515.895 233.522C522.644 248.256 525.966 264.066 526.066 280.209L526.066 280.21C526.106 286.483 525.438 292.849 524.954 298.659L524.954 298.665C524.037 309.485 522.638 320.258 520.76 330.954L520.758 330.971C519.352 338.828 518.04 348.566 514.909 357.257C511.709 366.14 506.399 374.613 496.573 379.803C494.347 380.979 491.7 381.611 489.915 381.953C488.964 382.135 488.127 382.259 487.525 382.337C487.222 382.376 486.975 382.404 486.797 382.423C486.708 382.433 486.635 382.44 486.582 382.445C486.556 382.448 486.534 382.45 486.517 382.452C486.508 382.452 486.501 382.453 486.495 382.453C486.492 382.454 486.489 382.454 486.487 382.454C486.486 382.454 486.485 382.455 486.484 382.455L486.482 382.455C486.482 382.454 486.477 382.408 486.107 378.253L486.481 382.455L486.382 382.464L486.283 382.468C484.705 382.546 483.635 382.592 481.397 382.258L481.158 382.222L480.924 382.164L482.135 377.313C480.924 382.164 480.922 382.164 480.92 382.163L480.918 382.162C480.916 382.162 480.913 382.161 480.911 382.16C480.907 382.159 480.901 382.158 480.896 382.157C480.885 382.154 480.872 382.151 480.857 382.147C480.828 382.14 480.792 382.13 480.749 382.119C480.662 382.095 480.547 382.064 480.407 382.023C480.127 381.941 479.743 381.823 479.274 381.664C478.337 381.346 477.049 380.858 475.555 380.16C472.589 378.774 468.686 376.496 465.137 372.943L465.137 372.944C462.053 369.857 457.599 367.078 453.179 364.679C433.707 355.177 413.87 345.893 393.887 337.937L380.528 332.674C379.01 332.086 375.157 330.901 372.364 329.291ZM347.927 240.36C347.926 240.359 347.926 240.358 347.925 240.357C347.926 240.36 347.927 240.362 347.928 240.364C347.93 240.367 347.932 240.369 347.932 240.37C347.931 240.369 347.929 240.365 347.927 240.36Z" fill="#B698F2" stroke="#0A2756" stroke-width="10"/>
<path d="M471.871 234.087H470.516V231.391C470.516 228.418 468.086 226 465.097 226H450.194C445.9 226 441.639 227.228 438 229.481C434.361 227.228 430.1 226 425.806 226H410.903C407.914 226 405.484 228.418 405.484 231.391V234.087H404.129C399.646 234.087 396 237.714 396 242.174V279.913C396 284.373 399.646 288 404.129 288H471.871C476.354 288 480 284.373 480 279.913V242.174C480 237.714 476.354 234.087 471.871 234.087ZM465.097 231.391V273.174H450.194C446.927 273.174 443.679 273.883 440.71 275.213V234.149C443.528 232.363 446.847 231.391 450.194 231.391H465.097ZM410.903 231.391H425.806C429.153 231.391 432.472 232.363 435.29 234.149V275.213C432.321 273.883 429.073 273.174 425.806 273.174H410.903V231.391ZM401.419 279.913V242.174C401.419 240.687 402.635 239.478 404.129 239.478H405.484V273.174C405.484 276.147 407.914 278.565 410.903 278.565H425.806C429.153 278.565 432.472 279.541 435.29 281.328V282.609H404.129C402.635 282.609 401.419 281.4 401.419 279.913ZM474.581 279.913C474.581 281.4 473.365 282.609 471.871 282.609H440.71V281.328C443.528 279.541 446.847 278.565 450.194 278.565H465.097C468.086 278.565 470.516 276.147 470.516 273.174V239.478H471.871C473.365 239.478 474.581 240.687 474.581 242.174V279.913Z" fill="#0A2756"/>
<path d="M417.677 243.522H428.516C430.012 243.522 431.226 242.314 431.226 240.826C431.226 239.338 430.012 238.13 428.516 238.13H417.677C416.182 238.13 414.968 239.338 414.968 240.826C414.968 242.314 416.182 243.522 417.677 243.522ZM417.677 254.304H428.516C430.012 254.304 431.226 253.097 431.226 251.609C431.226 250.121 430.012 248.913 428.516 248.913H417.677C416.182 248.913 414.968 250.121 414.968 251.609C414.968 253.097 416.182 254.304 417.677 254.304ZM431.226 262.391C431.226 260.903 430.012 259.696 428.516 259.696H417.677C416.182 259.696 414.968 260.903 414.968 262.391C414.968 263.879 416.182 265.087 417.677 265.087H428.516C430.012 265.087 431.226 263.879 431.226 262.391ZM447.484 243.522H458.323C459.818 243.522 461.032 242.314 461.032 240.826C461.032 239.338 459.818 238.13 458.323 238.13H447.484C445.988 238.13 444.774 239.338 444.774 240.826C444.774 242.314 445.988 243.522 447.484 243.522ZM447.484 254.304H458.323C459.818 254.304 461.032 253.097 461.032 251.609C461.032 250.121 459.818 248.913 458.323 248.913H447.484C445.988 248.913 444.774 250.121 444.774 251.609C444.774 253.097 445.988 254.304 447.484 254.304ZM447.484 265.087H458.323C459.818 265.087 461.032 263.879 461.032 262.391C461.032 260.903 459.818 259.696 458.323 259.696H447.484C445.988 259.696 444.774 260.903 444.774 262.391C444.774 263.879 445.988 265.087 447.484 265.087Z" fill="#0A2756"/>
<path d="M279.183 412.066C279.919 408.732 281.994 403.881 287.821 402.891L287.823 402.891C297.757 401.204 305.422 399.312 314.46 395.19C320.361 392.442 328.421 386.316 335.307 380.534C338.681 377.7 341.658 375.051 343.791 373.108C344.856 372.138 345.709 371.346 346.292 370.8C346.584 370.527 346.808 370.316 346.958 370.174C347.033 370.103 347.089 370.049 347.126 370.014C347.144 369.996 347.158 369.984 347.166 369.975C347.171 369.971 347.174 369.968 347.176 369.967L347.177 369.965L347.294 369.854L347.419 369.749L356.702 361.95C356.71 361.942 356.72 361.934 356.73 361.924C356.817 361.837 356.959 361.692 357.141 361.496C357.508 361.1 358.024 360.506 358.574 359.76C359.711 358.219 360.812 356.278 361.265 354.251C361.832 351.719 363.136 349.601 365.149 348.154C367.059 346.781 369.187 346.314 370.959 346.198C374.358 345.975 377.842 346.979 379.698 347.546L379.697 347.546C391.24 351.07 402.173 356.581 412.481 361.316L412.483 361.317C419.278 364.441 427.733 367.895 434.651 372.143C439.792 375.28 444.456 379.135 448.504 383.591C457.878 393.905 463.423 408.09 462.702 422.273C462.504 426.781 461.682 431.241 460.254 435.524L460.248 435.544L460.241 435.563C458.729 439.982 456.133 445.257 454.396 449.049L454.391 449.059L445.053 469.336L445.043 469.359C441.009 478.002 435.017 492.33 429.838 500.648L429.839 500.649C425.37 507.83 419.951 514.377 413.728 520.108L413.711 520.124L413.694 520.139C401.672 531.008 387.594 538.932 372.229 543.884L372.228 543.883C366.257 545.809 359.985 547.088 354.3 548.374L354.294 548.375C343.699 550.756 333.004 552.662 322.239 554.089L322.222 554.093C314.306 555.115 304.625 556.793 295.394 556.422C285.96 556.042 276.282 553.527 268.376 545.718C266.585 543.948 265.186 541.615 264.323 540.015C263.863 539.163 263.493 538.402 263.238 537.851C263.109 537.574 263.008 537.347 262.936 537.183C262.9 537.1 262.872 537.033 262.851 536.984C262.841 536.96 262.832 536.94 262.825 536.924C262.822 536.916 262.819 536.91 262.817 536.904C262.816 536.901 262.815 536.899 262.814 536.896C262.814 536.895 262.813 536.894 262.812 536.893L262.812 536.892C262.812 536.891 262.855 536.873 266.706 535.27L262.811 536.891L262.773 536.799L262.739 536.706C262.19 535.224 261.824 534.218 261.47 531.983L261.432 531.745L261.417 531.504L266.408 531.2C261.417 531.503 261.416 531.502 261.416 531.5L261.417 531.497C261.417 531.495 261.417 531.493 261.416 531.491C261.416 531.486 261.415 531.48 261.415 531.475C261.414 531.464 261.414 531.45 261.413 531.435C261.411 531.405 261.409 531.368 261.407 531.323C261.404 531.233 261.399 531.115 261.396 530.969C261.39 530.677 261.387 530.275 261.397 529.78C261.419 528.791 261.496 527.415 261.713 525.781C262.142 522.535 263.14 518.128 265.462 513.674L265.461 513.675C267.476 509.805 268.787 504.721 269.745 499.784C272.949 478.355 275.835 456.644 277.412 435.194L278.412 420.871C278.516 419.246 278.487 415.215 279.183 412.066ZM356.643 362.008C356.643 362.008 356.644 362.007 356.645 362.006C356.643 362.008 356.641 362.01 356.639 362.011C356.637 362.014 356.636 362.016 356.635 362.016C356.636 362.015 356.638 362.013 356.643 362.008Z" fill="#BFE798" stroke="#0A2756" stroke-width="10"/>
<circle cx="24.5" cy="226.5" r="21" fill="#FFCA8B" stroke="#0A2756" stroke-width="7"/>
<circle cx="24.5" cy="226.5" r="11" fill="#FEA53A"/>
<circle cx="288.5" cy="41.5" r="21" fill="#89DCDE" stroke="#0A2756" stroke-width="7"/>
<circle cx="288.5" cy="41.5" r="11" fill="#61C0C3"/>
<circle cx="526.5" cy="254.5" r="21" fill="#CAB4F7" stroke="#0A2756" stroke-width="7"/>
<circle cx="526.5" cy="254.5" r="11" fill="#B698F2"/>
<circle cx="429.5" cy="504.5" r="21" fill="#DFFBC4" stroke="#0A2756" stroke-width="7"/>
<circle cx="429.5" cy="504.5" r="11" fill="#BFE798"/>
<circle cx="110.5" cy="504.5" r="21" fill="#FFECA3" stroke="#0A2756" stroke-width="7"/>
<circle cx="110.5" cy="504.5" r="11" fill="#FFE377"/>
<path opacity="0.2" d="M364.73 405.26C364.616 405.25 364.501 405.267 364.395 405.31L364.394 405.31C362.57 406.058 360.816 406.967 359.153 408.026C359.057 408.088 358.978 408.173 358.92 408.271C358.862 408.371 358.828 408.483 358.821 408.598L358.821 408.601L358.363 416.639L358.322 417.372L357.815 417.904C357.629 418.1 357.446 418.298 357.264 418.501L356.727 419.119C356.374 419.539 356.036 419.965 355.714 420.397L355.275 420.986L354.56 421.151L346.715 422.963L346.713 422.964C346.6 422.99 346.494 423.042 346.406 423.117C346.317 423.191 346.248 423.286 346.203 423.393L346.203 423.392C345.538 424.983 344.997 426.623 344.587 428.297L344.419 429.017C344.395 429.129 344.398 429.244 344.427 429.355C344.456 429.466 344.512 429.57 344.589 429.656L344.591 429.658L349.95 435.666L350.439 436.214L350.458 436.947C350.471 437.487 350.501 438.029 350.548 438.575L350.629 439.39C350.66 439.66 350.696 439.929 350.735 440.196L350.841 440.922L350.452 441.545L346.186 448.373L346.184 448.376C346.123 448.474 346.086 448.586 346.076 448.701C346.066 448.816 346.083 448.931 346.126 449.037C346.874 450.86 347.783 452.612 348.841 454.274C348.903 454.372 348.988 454.453 349.088 454.511C349.187 454.569 349.299 454.603 349.415 454.61L349.418 454.61L357.455 455.068L358.188 455.11L358.72 455.616C359.111 455.988 359.516 456.35 359.934 456.703C360.354 457.057 360.78 457.395 361.213 457.717L361.802 458.155L361.967 458.871L363.779 466.716L363.78 466.718C363.806 466.831 363.858 466.937 363.933 467.026C364.007 467.113 364.101 467.182 364.206 467.227C366.025 467.987 367.908 468.585 369.833 469.012C369.945 469.036 370.06 469.033 370.171 469.004C370.282 468.975 370.386 468.919 370.472 468.842L370.474 468.84L376.482 463.481L377.03 462.992L377.764 462.974C378.303 462.96 378.846 462.93 379.392 462.884L380.206 462.802C380.476 462.771 380.745 462.735 381.013 462.696L381.739 462.59L382.361 462.979L389.19 467.245L389.192 467.247C389.29 467.308 389.402 467.345 389.518 467.355C389.632 467.365 389.748 467.347 389.854 467.304C391.678 466.556 393.433 465.647 395.096 464.588C395.191 464.526 395.27 464.442 395.328 464.344C395.386 464.244 395.42 464.132 395.426 464.017L395.427 464.014L395.885 455.976L395.926 455.243L396.432 454.711C396.804 454.32 397.167 453.915 397.52 453.496C397.874 453.076 398.211 452.65 398.534 452.217L398.973 451.629L399.688 451.464L407.533 449.652L407.535 449.651L407.618 449.627C407.699 449.598 407.775 449.554 407.842 449.498C407.908 449.442 407.964 449.375 408.006 449.3L408.045 449.222C408.71 447.631 409.25 445.992 409.661 444.318L409.829 443.598C409.853 443.486 409.85 443.371 409.821 443.26C409.791 443.149 409.736 443.045 409.659 442.959L409.657 442.957L404.297 436.949L403.808 436.401L403.79 435.668C403.777 435.128 403.747 434.585 403.7 434.039L403.619 433.225C403.588 432.955 403.552 432.686 403.513 432.419L403.407 431.693L403.796 431.07L408.061 424.242L408.063 424.239L408.105 424.163C408.142 424.085 408.164 424 408.172 423.914C408.181 423.799 408.164 423.684 408.121 423.578C407.373 421.754 406.464 419.999 405.405 418.336C405.343 418.24 405.258 418.161 405.16 418.104C405.06 418.045 404.948 418.012 404.833 418.005L404.83 418.004L396.792 417.547L396.059 417.505L395.527 416.999C395.137 416.627 394.732 416.265 394.313 415.912C393.893 415.558 393.467 415.22 393.034 414.898L392.446 414.46L392.281 413.744L390.468 405.899L390.467 405.897C390.441 405.784 390.389 405.678 390.314 405.589C390.24 405.501 390.145 405.431 390.038 405.386L390.039 405.385C388.221 404.625 386.338 404.029 384.414 403.602C384.303 403.578 384.187 403.582 384.077 403.611C383.965 403.64 383.862 403.695 383.776 403.772L383.773 403.775L377.766 409.134L377.217 409.623L376.484 409.641C376.214 409.648 375.943 409.658 375.672 409.673L374.856 409.731C374.309 409.778 373.769 409.84 373.235 409.919L372.509 410.025L371.887 409.636L365.058 405.37L365.056 405.368C364.957 405.306 364.845 405.27 364.73 405.26ZM368.67 419.982C371.899 418.31 375.551 417.633 379.164 418.037C382.778 418.44 386.191 419.906 388.971 422.249C391.752 424.592 393.775 427.707 394.785 431.2C395.795 434.693 395.747 438.407 394.646 441.873C393.545 445.338 391.441 448.4 388.6 450.67C385.76 452.94 382.31 454.316 378.687 454.626C376.282 454.831 373.859 454.56 371.558 453.829C369.257 453.099 367.122 451.922 365.276 450.366C363.43 448.81 361.908 446.905 360.798 444.761C359.688 442.618 359.011 440.276 358.806 437.871C358.496 434.248 359.269 430.615 361.025 427.43C362.78 424.246 365.441 421.654 368.67 419.982Z" stroke="#0A2756" stroke-width="4"/>
<path d="M378.484 452.25C369.68 453.001 361.933 446.473 361.182 437.668C360.43 428.864 366.959 421.117 375.763 420.366C384.568 419.614 392.314 426.143 393.066 434.947C393.817 443.752 387.289 451.498 378.484 452.25Z" stroke="#0A2756" stroke-width="4" stroke-linecap="round" stroke-linejoin="round"/>
<path d="M376.434 407.642L382.441 402.282C382.764 401.994 383.15 401.786 383.568 401.676C383.986 401.566 384.425 401.557 384.847 401.65C386.888 402.103 388.884 402.736 390.813 403.542C391.212 403.71 391.566 403.971 391.845 404.302C392.124 404.634 392.32 405.027 392.417 405.449L394.229 413.294C394.694 413.64 395.151 414.003 395.601 414.382C396.051 414.76 396.486 415.15 396.906 415.55L404.944 416.008C405.375 416.032 405.795 416.158 406.169 416.376C406.542 416.594 406.858 416.898 407.092 417.262C408.214 419.025 409.178 420.885 409.972 422.819C410.136 423.22 410.202 423.654 410.164 424.086C410.127 424.517 409.988 424.934 409.758 425.301L405.492 432.13C405.576 432.703 405.643 433.283 405.693 433.869C405.743 434.455 405.775 435.038 405.79 435.618L411.149 441.625C411.438 441.947 411.645 442.334 411.755 442.752C411.865 443.17 411.874 443.608 411.781 444.031C411.328 446.072 410.695 448.068 409.889 449.997C409.721 450.396 409.461 450.75 409.129 451.028C408.798 451.307 408.405 451.503 407.982 451.6L400.137 453.413C399.791 453.878 399.428 454.335 399.05 454.785C398.671 455.234 398.281 455.669 397.881 456.09L397.423 464.127C397.399 464.559 397.273 464.979 397.055 465.352C396.837 465.726 396.533 466.042 396.169 466.275C394.406 467.398 392.546 468.362 390.612 469.156C390.211 469.319 389.777 469.385 389.346 469.348C388.914 469.311 388.498 469.171 388.13 468.941L381.302 464.676C380.728 464.76 380.148 464.827 379.562 464.877C378.976 464.927 378.394 464.959 377.813 464.973L371.806 470.333C371.484 470.621 371.098 470.829 370.679 470.939C370.261 471.049 369.823 471.058 369.4 470.965C367.36 470.512 365.363 469.879 363.435 469.073C363.035 468.905 362.682 468.644 362.403 468.313C362.124 467.981 361.928 467.588 361.831 467.166L360.019 459.321C359.553 458.975 359.096 458.612 358.646 458.233C358.197 457.854 357.762 457.465 357.342 457.065L349.304 456.607C348.872 456.583 348.452 456.457 348.079 456.239C347.705 456.021 347.389 455.717 347.156 455.353C346.033 453.59 345.069 451.73 344.276 449.796C344.112 449.395 344.046 448.961 344.083 448.529C344.12 448.098 344.26 447.681 344.49 447.314L348.756 440.485C348.672 439.911 348.605 439.332 348.554 438.746C348.504 438.16 348.472 437.577 348.458 436.997L343.098 430.99C342.81 430.668 342.602 430.281 342.492 429.863C342.382 429.445 342.374 429.006 342.466 428.584C342.919 426.543 343.552 424.547 344.359 422.618C344.527 422.219 344.787 421.865 345.118 421.586C345.45 421.308 345.843 421.112 346.265 421.015L354.11 419.202C354.457 418.737 354.819 418.28 355.198 417.83C355.577 417.381 355.966 416.946 356.366 416.525L356.824 408.488C356.848 408.056 356.974 407.636 357.192 407.263C357.411 406.889 357.714 406.573 358.078 406.34C359.842 405.217 361.701 404.253 363.635 403.459C364.036 403.296 364.47 403.23 364.902 403.267C365.334 403.304 365.75 403.444 366.117 403.673L372.946 407.939C373.52 407.855 374.1 407.788 374.685 407.738C375.271 407.688 375.854 407.656 376.434 407.642Z" stroke="#0A2756" stroke-width="4" stroke-linecap="round" stroke-linejoin="round"/>
<path opacity="0.2" d="M336.792 465.261C336.708 465.244 336.621 465.247 336.539 465.27L336.539 465.271C335.289 465.624 334.074 466.087 332.907 466.656C332.83 466.693 332.764 466.749 332.713 466.817C332.662 466.886 332.627 466.966 332.613 467.051L332.612 467.053L331.715 472.263L331.637 472.715L331.285 473.009C331.148 473.123 331.013 473.239 330.879 473.358L330.482 473.723C330.219 473.971 329.966 474.225 329.722 474.484L329.408 474.819L328.952 474.87L323.7 475.468L323.698 475.468C323.612 475.478 323.53 475.508 323.458 475.555C323.404 475.591 323.357 475.636 323.319 475.688L323.284 475.743C322.652 476.874 322.121 478.06 321.698 479.286L321.698 479.287C321.67 479.368 321.662 479.455 321.674 479.54C321.687 479.625 321.719 479.706 321.769 479.776L321.77 479.777L324.819 484.096L325.083 484.471L325.043 484.928C325.011 485.282 324.99 485.639 324.98 486L324.972 486.54C324.973 486.719 324.976 486.898 324.982 487.075L324.996 487.534L324.71 487.893L321.419 492.03L321.418 492.031C321.364 492.098 321.326 492.178 321.309 492.262C321.292 492.347 321.295 492.435 321.319 492.518C321.672 493.765 322.135 494.98 322.703 496.146C322.741 496.223 322.796 496.289 322.865 496.341C322.934 496.392 323.014 496.427 323.099 496.441L323.101 496.442L328.311 497.34L328.763 497.417L329.057 497.769C329.285 498.042 329.523 498.31 329.771 498.572C330.019 498.835 330.273 499.088 330.532 499.332L330.867 499.645L330.918 500.102L331.516 505.354L331.516 505.356C331.526 505.442 331.556 505.524 331.603 505.596C331.639 505.65 331.684 505.697 331.736 505.735L331.791 505.77C332.782 506.323 333.814 506.799 334.878 507.193L335.335 507.356C335.416 507.384 335.503 507.392 335.588 507.38C335.673 507.368 335.753 507.335 335.823 507.285L335.825 507.284L340.144 504.235L340.519 503.971L340.976 504.011C341.33 504.043 341.687 504.064 342.048 504.074L342.587 504.082C342.767 504.081 342.945 504.078 343.123 504.073L343.582 504.058L343.941 504.344L348.078 507.636L348.079 507.637C348.146 507.69 348.226 507.728 348.31 507.745C348.395 507.762 348.482 507.759 348.566 507.736L348.566 507.736C349.659 507.426 350.725 507.033 351.756 506.559L352.195 506.35C352.272 506.313 352.338 506.257 352.389 506.189C352.44 506.12 352.475 506.04 352.489 505.955L352.489 505.953L353.388 500.744L353.465 500.292L353.817 499.997L354.223 499.648L354.62 499.283C354.883 499.035 355.136 498.782 355.38 498.522L355.693 498.187L356.15 498.136L361.402 497.538L361.404 497.538C361.49 497.528 361.572 497.498 361.643 497.451C361.715 497.404 361.774 497.34 361.817 497.265L361.816 497.265C362.449 496.133 362.981 494.946 363.404 493.72C363.432 493.638 363.44 493.551 363.428 493.466C363.416 493.381 363.383 493.301 363.333 493.231L363.332 493.229L360.283 488.911L360.019 488.536L360.059 488.079C360.091 487.724 360.112 487.367 360.122 487.006L360.13 486.467C360.129 486.287 360.126 486.109 360.12 485.931L360.106 485.472L360.392 485.113L363.684 480.976L363.685 480.975L363.722 480.923C363.756 480.868 363.78 480.807 363.793 480.744C363.81 480.66 363.806 480.573 363.783 480.491C363.43 479.241 362.967 478.025 362.398 476.858C362.361 476.782 362.305 476.716 362.237 476.665C362.168 476.614 362.088 476.58 362.003 476.565L362.001 476.565L356.792 475.667L356.339 475.589L356.045 475.237C355.931 475.101 355.815 474.965 355.696 474.831L355.331 474.434C355.083 474.171 354.829 473.918 354.57 473.675L354.235 473.361L354.184 472.904L353.586 467.652L353.586 467.65C353.576 467.564 353.546 467.483 353.499 467.411C353.452 467.34 353.389 467.28 353.314 467.238L353.313 467.239C352.181 466.605 350.994 466.073 349.767 465.65C349.686 465.622 349.599 465.614 349.514 465.626C349.429 465.639 349.349 465.672 349.279 465.721L349.277 465.722L344.958 468.771L344.584 469.036L344.127 468.995C343.949 468.979 343.771 468.966 343.592 468.955L343.054 468.932C342.693 468.922 342.334 468.922 341.979 468.934L341.52 468.948L341.161 468.662L337.024 465.371L337.022 465.37C336.955 465.316 336.876 465.278 336.792 465.261ZM338.274 475.281C340.494 474.436 342.914 474.267 345.23 474.797C347.545 475.326 349.651 476.531 351.282 478.258C352.912 479.985 353.995 482.156 354.392 484.498C354.788 486.84 354.481 489.247 353.51 491.414C352.539 493.582 350.946 495.413 348.935 496.675C346.923 497.938 344.582 498.575 342.208 498.507C340.631 498.462 339.079 498.107 337.64 497.462C336.201 496.817 334.902 495.896 333.82 494.749C332.737 493.602 331.891 492.253 331.329 490.78C330.768 489.306 330.502 487.736 330.547 486.16C330.615 483.786 331.385 481.485 332.761 479.548C334.136 477.612 336.055 476.127 338.274 475.281Z" stroke="#0A2756" stroke-width="2.5"/>
<path d="M342.251 497.005C336.45 496.839 331.883 492.003 332.049 486.203C332.215 480.403 337.051 475.835 342.851 476.001C348.652 476.167 353.219 481.003 353.053 486.804C352.887 492.604 348.051 497.171 342.251 497.005Z" stroke="#0A2756" stroke-width="2.5" stroke-linecap="round" stroke-linejoin="round"/>
<path d="M344.237 467.75L348.556 464.701C348.788 464.537 349.055 464.43 349.336 464.389C349.617 464.349 349.904 464.376 350.173 464.468C351.47 464.915 352.726 465.477 353.924 466.147C354.172 466.286 354.383 466.482 354.54 466.72C354.697 466.957 354.796 467.228 354.828 467.51L355.426 472.764C355.703 473.024 355.975 473.295 356.24 473.575C356.505 473.856 356.76 474.143 357.004 474.435L362.214 475.333C362.494 475.381 362.758 475.494 362.986 475.664C363.213 475.834 363.397 476.056 363.522 476.311C364.123 477.545 364.613 478.83 364.987 480.151C365.064 480.425 365.074 480.713 365.018 480.992C364.961 481.27 364.839 481.532 364.662 481.754L361.37 485.892C361.382 486.272 361.383 486.655 361.372 487.041C361.361 487.427 361.338 487.81 361.304 488.189L364.353 492.508C364.517 492.74 364.624 493.007 364.665 493.288C364.705 493.569 364.678 493.856 364.586 494.125C364.139 495.422 363.577 496.678 362.907 497.876C362.768 498.124 362.572 498.335 362.335 498.492C362.098 498.65 361.827 498.748 361.544 498.78L356.291 499.378C356.03 499.655 355.759 499.927 355.479 500.192C355.198 500.457 354.912 500.712 354.619 500.956L353.721 506.166C353.674 506.446 353.56 506.71 353.39 506.938C353.22 507.165 352.998 507.349 352.743 507.474C351.509 508.075 350.224 508.565 348.903 508.939C348.629 509.016 348.341 509.026 348.062 508.97C347.784 508.913 347.522 508.792 347.3 508.614L343.163 505.322C342.782 505.334 342.399 505.335 342.013 505.324C341.627 505.313 341.244 505.29 340.865 505.256L336.546 508.305C336.314 508.47 336.047 508.576 335.766 508.617C335.485 508.657 335.198 508.631 334.929 508.539C333.632 508.091 332.376 507.529 331.178 506.859C330.93 506.72 330.719 506.524 330.562 506.287C330.405 506.05 330.306 505.779 330.274 505.496L329.676 500.243C329.399 499.982 329.127 499.711 328.862 499.431C328.597 499.15 328.342 498.864 328.098 498.571L322.888 497.674C322.608 497.626 322.344 497.512 322.116 497.342C321.889 497.172 321.705 496.95 321.58 496.695C320.979 495.461 320.489 494.176 320.115 492.855C320.038 492.582 320.028 492.293 320.084 492.015C320.141 491.736 320.263 491.474 320.44 491.252L323.732 487.115C323.72 486.734 323.719 486.351 323.73 485.965C323.741 485.579 323.764 485.196 323.798 484.817L320.749 480.498C320.585 480.266 320.478 479.999 320.437 479.718C320.397 479.437 320.424 479.15 320.516 478.882C320.963 477.584 321.525 476.329 322.195 475.13C322.334 474.882 322.53 474.671 322.767 474.514C323.004 474.357 323.275 474.258 323.558 474.226L328.811 473.629C329.072 473.351 329.343 473.079 329.623 472.814C329.904 472.549 330.19 472.295 330.483 472.05L331.381 466.84C331.428 466.561 331.542 466.296 331.712 466.069C331.882 465.841 332.104 465.657 332.359 465.533C333.593 464.931 334.878 464.441 336.199 464.067C336.473 463.991 336.761 463.98 337.04 464.036C337.318 464.093 337.58 464.215 337.802 464.392L341.939 467.684C342.32 467.672 342.703 467.672 343.089 467.682C343.475 467.693 343.858 467.716 344.237 467.75Z" stroke="#0A2756" stroke-width="2.5" stroke-linecap="round" stroke-linejoin="round"/>
<path opacity="0.2" d="M149.387 409.46C149.375 409.458 149.363 409.458 149.352 409.461C148.787 409.621 148.239 409.831 147.711 410.088L147.71 410.088C147.699 410.093 147.689 410.101 147.682 410.111C147.675 410.12 147.671 410.132 147.669 410.144L147.669 410.145L147.255 412.544L147.208 412.815L146.997 412.992L146.634 413.315C146.516 413.426 146.402 413.541 146.292 413.657L146.104 413.858L145.83 413.889L143.41 414.164L143.409 414.165C143.397 414.166 143.386 414.17 143.376 414.177L143.351 414.203C143.065 414.715 142.825 415.251 142.633 415.806L142.633 415.807C142.63 415.818 142.629 415.831 142.63 415.843C142.632 415.854 142.636 415.866 142.643 415.875L142.644 415.876L144.049 417.865L144.207 418.091L144.183 418.365C144.169 418.524 144.159 418.686 144.155 418.848L144.155 419.333L144.164 419.609L143.993 419.824L142.476 421.729L142.476 421.73C142.468 421.74 142.463 421.751 142.46 421.763C142.458 421.774 142.458 421.786 142.461 421.797C142.621 422.362 142.831 422.912 143.088 423.44C143.093 423.451 143.101 423.461 143.111 423.468C143.12 423.475 143.131 423.479 143.143 423.482L143.145 423.482L145.544 423.895L145.815 423.942L145.992 424.153C146.094 424.276 146.202 424.397 146.314 424.515C146.426 424.634 146.541 424.748 146.658 424.858L146.858 425.046L146.89 425.32L147.164 427.74L147.165 427.741C147.167 427.753 147.17 427.764 147.177 427.774C147.184 427.784 147.193 427.792 147.204 427.798C147.588 428.012 147.986 428.202 148.395 428.364L148.807 428.517C148.818 428.521 148.831 428.521 148.843 428.52L148.875 428.507L148.876 428.506L150.866 427.101L151.091 426.943L151.365 426.967C151.524 426.981 151.686 426.991 151.849 426.996L152.333 426.995L152.609 426.986L152.824 427.157L154.729 428.674L154.73 428.674C154.74 428.682 154.751 428.688 154.763 428.69C154.775 428.692 154.787 428.692 154.798 428.689L154.797 428.689C155.363 428.529 155.913 428.319 156.441 428.062L156.44 428.062C156.451 428.057 156.461 428.049 156.468 428.039C156.475 428.03 156.48 428.019 156.482 428.007L156.482 428.005L156.895 425.606L156.942 425.335L157.153 425.158L157.515 424.835L157.516 424.835C157.634 424.724 157.749 424.609 157.858 424.493L158.047 424.292L158.32 424.261L160.74 423.986L160.741 423.985C160.753 423.984 160.765 423.98 160.775 423.973C160.785 423.967 160.793 423.957 160.799 423.947C161.013 423.562 161.203 423.164 161.364 422.755L161.517 422.341C161.52 422.331 161.521 422.319 161.52 422.307C161.518 422.296 161.514 422.284 161.507 422.275L161.506 422.274L160.101 420.284L159.943 420.059L159.967 419.785C159.981 419.626 159.991 419.464 159.996 419.302L159.995 418.817L159.986 418.541L160.157 418.326L161.674 416.421L161.674 416.42L161.69 416.387C161.692 416.375 161.692 416.362 161.689 416.351C161.529 415.786 161.319 415.237 161.062 414.71C161.057 414.699 161.049 414.689 161.039 414.682C161.03 414.675 161.018 414.67 161.007 414.668L161.006 414.668L158.606 414.255L158.334 414.208L158.157 413.997C158.055 413.874 157.947 413.753 157.836 413.635L157.837 413.634C157.725 413.515 157.61 413.402 157.493 413.292L157.292 413.104L157.261 412.83L156.986 410.41L156.985 410.409C156.984 410.397 156.98 410.386 156.973 410.376L156.947 410.351C156.434 410.065 155.898 409.824 155.343 409.632C155.331 409.629 155.319 409.629 155.307 409.63C155.296 409.632 155.284 409.636 155.275 409.643L155.274 409.644L153.285 411.049L153.059 411.207L152.785 411.183L152.302 411.154C152.139 411.15 151.977 411.15 151.817 411.155L151.541 411.164L151.326 410.993L149.421 409.476L149.42 409.476C149.41 409.468 149.399 409.462 149.387 409.46ZM150.043 413.742C151.098 413.34 152.248 413.261 153.348 413.512C154.448 413.764 155.449 414.336 156.224 415.157C156.999 415.977 157.513 417.009 157.701 418.122C157.89 419.235 157.744 420.379 157.283 421.408C156.821 422.438 156.064 423.309 155.108 423.909C154.152 424.509 153.04 424.811 151.912 424.779C151.163 424.757 150.425 424.589 149.742 424.283C149.058 423.976 148.441 423.538 147.926 422.993C147.412 422.448 147.009 421.807 146.742 421.107C146.476 420.407 146.35 419.661 146.371 418.912C146.404 417.784 146.769 416.691 147.423 415.771C148.076 414.851 148.989 414.144 150.043 413.742Z" stroke="#0A2756" stroke-width="1.5"/>
<path d="M151.937 423.913C149.265 423.837 147.161 421.609 147.237 418.937C147.313 416.265 149.541 414.16 152.213 414.237C154.885 414.313 156.99 416.541 156.913 419.213C156.837 421.885 154.609 423.989 151.937 423.913Z" stroke="#0A2756" stroke-width="1.5" stroke-linecap="round" stroke-linejoin="round"/>
<path d="M152.852 410.436L154.841 409.031C154.948 408.956 155.071 408.906 155.201 408.888C155.33 408.869 155.462 408.881 155.586 408.924C156.184 409.13 156.762 409.389 157.314 409.697C157.428 409.762 157.526 409.852 157.598 409.961C157.671 410.07 157.716 410.195 157.731 410.325L158.006 412.746C158.134 412.866 158.259 412.99 158.381 413.12C158.503 413.249 158.621 413.381 158.733 413.515L161.133 413.929C161.262 413.951 161.384 414.003 161.489 414.082C161.594 414.16 161.678 414.262 161.736 414.38C162.013 414.948 162.239 415.54 162.411 416.149C162.446 416.275 162.451 416.408 162.425 416.536C162.399 416.664 162.343 416.785 162.261 416.887L160.745 418.793C160.75 418.969 160.75 419.145 160.745 419.323C160.74 419.501 160.73 419.677 160.714 419.852L162.119 421.841C162.195 421.948 162.244 422.071 162.262 422.201C162.281 422.33 162.269 422.462 162.226 422.586C162.02 423.184 161.761 423.762 161.453 424.314C161.389 424.428 161.298 424.526 161.189 424.598C161.08 424.671 160.955 424.716 160.825 424.731L158.405 425.006C158.284 425.134 158.16 425.259 158.031 425.381C157.901 425.503 157.769 425.621 157.635 425.733L157.221 428.133C157.199 428.262 157.147 428.384 157.068 428.489C156.99 428.594 156.888 428.678 156.77 428.736C156.202 429.013 155.61 429.239 155.001 429.411C154.875 429.446 154.742 429.451 154.614 429.425C154.486 429.399 154.365 429.343 154.263 429.261L152.357 427.745C152.181 427.75 152.005 427.75 151.827 427.745C151.649 427.74 151.473 427.73 151.298 427.714L149.309 429.119C149.202 429.194 149.079 429.244 148.949 429.262C148.82 429.281 148.688 429.269 148.564 429.226C147.966 429.02 147.388 428.761 146.836 428.453C146.722 428.388 146.624 428.298 146.552 428.189C146.479 428.08 146.434 427.955 146.419 427.825L146.144 425.405C146.016 425.284 145.891 425.16 145.769 425.031C145.647 424.901 145.53 424.769 145.417 424.635L143.017 424.221C142.888 424.199 142.766 424.147 142.661 424.068C142.557 423.99 142.472 423.888 142.414 423.77C142.137 423.202 141.912 422.61 141.739 422.001C141.704 421.875 141.699 421.742 141.725 421.614C141.751 421.486 141.807 421.365 141.889 421.263L143.406 419.357C143.4 419.181 143.4 419.005 143.405 418.827C143.41 418.649 143.42 418.473 143.436 418.298L142.031 416.309C141.956 416.202 141.906 416.079 141.888 415.949C141.869 415.82 141.881 415.688 141.924 415.564C142.13 414.966 142.389 414.388 142.697 413.836C142.762 413.722 142.852 413.624 142.961 413.552C143.07 413.479 143.195 413.434 143.325 413.419L145.746 413.144C145.866 413.016 145.99 412.891 146.12 412.769C146.249 412.647 146.381 412.529 146.516 412.417L146.929 410.017C146.951 409.888 147.003 409.766 147.082 409.661C147.16 409.557 147.262 409.472 147.38 409.414C147.948 409.137 148.54 408.912 149.149 408.739C149.275 408.704 149.408 408.699 149.536 408.725C149.665 408.751 149.785 408.807 149.887 408.889L151.793 410.405C151.969 410.4 152.145 410.4 152.323 410.405C152.501 410.41 152.677 410.42 152.852 410.436Z" stroke="#0A2756" stroke-width="1.5" stroke-linecap="round" stroke-linejoin="round"/>
<path d="M172.736 446.506L169.273 445.541L168.375 444.015C174.065 440.215 178.461 434.447 180.429 427.388C184.818 411.649 175.617 395.334 159.877 390.945C144.138 386.557 127.822 395.758 123.434 411.497C119.046 427.237 128.247 443.552 143.986 447.94C151.045 449.909 158.255 449.131 164.451 446.228L165.292 447.786L164.326 451.249L180.148 479.238L188.502 474.527L172.736 446.506ZM146.431 439.172C135.514 436.128 129.159 424.859 132.202 413.942C135.246 403.025 146.516 396.67 157.432 399.714C168.349 402.758 174.704 414.027 171.661 424.944C168.617 435.86 157.348 442.216 146.431 439.172Z" fill="#0A2756"/>
</svg>
