<svg width="126" height="125" viewBox="0 0 126 125" fill="none" xmlns="http://www.w3.org/2000/svg">
<g clip-path="url(#clip0_11_70)">
<path d="M56.4566 23.3834C59.6277 23.1784 63.0421 23.4374 66.2026 23.1061C70.7988 22.624 70.6826 28.677 71.197 32.1505C73.4073 32.7721 77.0226 34.4812 78.9612 35.7823C81.5131 33.8279 82.8766 32.7589 85.8109 31.5224C88.7138 32.9703 93.2061 38.567 95.8764 41.2745C95.0831 43.3005 92.1436 47.0575 90.7249 49.0058C91.6143 50.7671 91.8831 51.8533 92.3555 53.7356C93.8018 54.2939 98.6111 55.0971 100.933 55.82C101.244 58.1042 101.653 67.0013 100.659 69.126C99.8336 70.8916 94.9485 71.3969 92.6266 72.0288C91.9889 73.0343 90.9695 75.3001 90.4125 76.4578C91.3819 77.7467 95.6693 83.0246 95.4349 84.3169C94.4897 86.4102 87.6606 93.1194 85.6774 94.5017C83.3615 93.5076 79.9791 91.247 78.0182 89.6617C75.5121 91.3933 74.3021 91.9114 71.4445 93.0087C70.7157 95.2487 70.5377 97.5018 69.8554 99.7375C69.5081 100.875 69.4381 100.962 68.5525 101.443C64.8763 101.599 59.0207 101.581 55.3501 101.45C54.4805 98.2975 54.0112 96.139 53.6419 92.8886C51.3736 92.0595 48.7977 90.9649 46.8695 89.4914C45.3098 90.4468 40.8493 94.4607 39.383 94.2303C37.374 93.3689 30.5878 86.0387 29.2329 83.9359C30.6956 81.3803 32.6158 78.8576 34.3549 76.4716C33.7627 74.9573 33.0191 73.3919 32.3418 71.9048C31.1307 71.6463 24.1867 70.4463 23.977 69.5821C23.3971 67.1922 23.1256 58.1088 24.0505 56.1225C27.1283 53.8157 32.0621 55.833 33.1324 51.7206C33.3537 50.8703 34.0242 49.6818 34.4304 48.8673C32.9624 47.133 30.2588 43.4175 29.3873 41.3607C31.1195 39.1845 36.4921 32.7836 38.5083 31.4913C40.9048 32.2199 44.0422 34.3356 45.9501 35.9479C47.0822 35.1921 53.1771 32.0231 53.5741 31.416C54.8815 29.4171 53.3742 24.6306 56.4566 23.3834ZM63.4099 80.1733C73.1569 79.7057 80.6983 71.2819 80.277 61.3327C79.8558 51.3832 71.6305 43.6549 61.8803 44.047C52.0777 44.4413 44.4552 52.8907 44.8787 62.8937C45.3022 72.8964 53.6104 80.6436 63.4099 80.1733Z" fill="#FE8320"/>
<path d="M104.217 59.5139C107.12 60.0283 123.947 63.5766 125.748 64.829C126.067 65.9271 125.901 68.4007 125.699 69.5643C123.962 79.5364 122.252 89.5357 120.562 99.5129L118.598 111.093C118.209 113.37 117.746 118.646 115.987 119.977C113.716 120.751 84.9441 115.275 80.1172 114.456C74.1661 113.319 67.8931 112.577 62.1072 110.891C60.825 110.518 60.7193 107.36 61.3202 106.503C63.0669 104.013 67.8732 105.432 70.3406 104.665C73.7006 103.621 73.4067 98.034 75.047 95.425C77.431 91.1366 83.916 99.0617 86.3924 97.6846C89.5245 95.9426 97.5099 87.5029 98.968 84.5286C98.0758 82.6624 96.6129 80.6686 95.4361 78.8879C92.177 73.9563 98.7065 73.7634 101.754 71.8857C105.697 69.4563 103.32 63.3325 104.217 59.5139Z" fill="#666566"/>
<path d="M61.5815 0.145801L61.7693 0.135511C71.8843 -0.364121 88.7876 4.01527 96.247 11.1471C93.6955 10.5004 91.1243 9.65483 88.5636 9.14902C80.1544 7.55866 71.4988 8.1445 63.3582 10.8551C47.5832 16.2219 32.6737 30.6008 25.0636 45.9298C18.6372 58.8738 17.3261 72.6161 21.6645 86.5109C22.6055 89.1355 23.0285 90.2297 24.5011 92.5856C21.3236 90.8222 18.2195 88.7738 15.3376 86.5258C-0.417608 74.2346 -1.92091 46.0741 10.201 30.4041C9.28246 35.2063 8.80537 38.845 8.64569 43.7538C9.7121 41.1834 10.4402 38.3022 11.5249 35.7002C20.8338 13.3686 38.6849 1.83129 61.5815 0.145801Z" fill="#007BC9"/>
<path d="M0.487061 79.6933C2.62 80.5516 7.75968 85.4729 10.1163 87.1681C19.4337 93.8689 29.1311 98.6642 40.0357 102.202C42.2218 102.911 54.7964 105.604 55.3671 106.304C54.967 107.478 45.8184 111.75 43.837 112.931C42.6237 113.437 41.4277 114.023 40.2668 114.641C33.2313 118.389 25.9692 121.611 18.8142 125.097C12.3975 112.952 6.63204 101.596 2.70975 88.3089C1.9594 85.7675 0.823723 82.2835 0.487061 79.6933Z" fill="#FE8320"/>
<path d="M72.9893 13.8068C79.9688 12.7768 90.6085 14.9608 96.8815 18.2426C110.137 25.1771 116.778 34.8316 121.447 48.73C119.239 49.4059 106.514 53.9069 105.299 53.9085C103.248 46.7989 101.438 40.8598 96.9375 34.8245C86.3942 20.6861 72.5671 16.5984 55.927 18.7612C59.5767 16.1428 68.5206 14.3507 72.9893 13.8068Z" fill="#666566"/>
<path d="M8.79795 2.94696C14.1874 2.40387 18.9719 6.58823 19.4826 12.2914C19.9933 17.9943 16.037 23.0552 10.6472 23.5929C5.26067 24.1304 0.481873 19.9472 -0.0286091 14.2479C-0.539091 8.54834 3.4121 3.48982 8.79795 2.94696Z" fill="#007BC9"/>
</g>
<defs>
<clipPath id="clip0_11_70">
<rect width="126" height="125" fill="white"/>
</clipPath>
</defs>
</svg>
