<svg width="23" height="26" viewBox="0 0 23 26" fill="none" xmlns="http://www.w3.org/2000/svg">
<path fill-rule="evenodd" clip-rule="evenodd" d="M23 24.4866L21.4089 26L19.6441 24.1458H4.63817C3.43049 24.1458 2.44238 23.158 2.44238 21.9507V6.06645L0 3.50054L1.59109 1.98714L23 24.4866ZM4.63817 21.9507H17.5556L12.8209 16.9743L10.1276 19.6677L5.73606 15.2883L7.29498 13.7406L10.1276 16.5616L11.3059 15.3826L4.63817 8.37406V21.9507Z" fill="black"/>
<path fill-rule="evenodd" clip-rule="evenodd" d="M12.3234 0C13.7507 0 14.9587 0.921929 15.4198 2.19507H20.0087C21.2164 2.19507 22.2045 3.18285 22.2045 4.39014V21.3987L20.0087 19.0911V4.39014H17.8129V7.68274H9.15304L6.83396 5.24544V4.39014H6.02018L4.01739 2.2851C4.21444 2.22663 4.42279 2.19507 4.63817 2.19507H9.22702C9.68813 0.921929 10.8962 0 12.3234 0ZM12.3234 2.19507C11.7196 2.19507 11.2255 2.68896 11.2255 3.2926C11.2255 3.89625 11.7196 4.39014 12.3234 4.39014C12.9273 4.39014 13.4213 3.89625 13.4213 3.2926C13.4213 2.68896 12.9273 2.19507 12.3234 2.19507Z" fill="black"/>
<path d="M18.9108 10.8875L15.4724 14.3237L13.9574 12.732L17.3626 9.32905L18.9108 10.8875Z" fill="black"/>
</svg>
