<svg width="38" height="35" viewBox="0 0 38 35" fill="none" xmlns="http://www.w3.org/2000/svg">
<path d="M20.8416 4.36908C13.1688 4.36908 6.94716 10.2382 6.94716 17.4764H2.31567L8.32116 23.1416L8.42923 23.3455L14.6663 17.4764H10.0348C10.0348 11.8402 14.867 7.28181 20.8416 7.28181C26.8162 7.28181 31.6484 11.8402 31.6484 17.4764C31.6484 23.1125 26.8162 27.6709 20.8416 27.6709C17.862 27.6709 15.1603 26.5204 13.2151 24.6708L11.0229 26.7388C13.5393 29.1127 16.9975 30.5836 20.8416 30.5836C28.5144 30.5836 34.7361 24.7145 34.7361 17.4764C34.7361 10.2382 28.5144 4.36908 20.8416 4.36908ZM19.2978 11.6509V18.9327L25.859 22.6028L27.0478 20.7386L21.6135 17.6948V11.6509H19.2978Z" fill="#082353"/>
</svg>
