<svg width="136" height="136" viewBox="0 0 136 136" fill="none" xmlns="http://www.w3.org/2000/svg">
<g clip-path="url(#clip0_213_57)">
<path d="M135.292 27.625V22.2417C135.292 19.2807 132.869 16.8583 129.908 16.8583H97.4468C91.2021 7.16822 80.3547 0.708328 67.9999 0.708328C55.6451 0.708328 44.7978 7.16822 38.5531 16.8583H6.09159C3.13081 16.8583 0.708252 19.2807 0.708252 22.2417V27.625C0.708252 30.5858 3.13081 33.0083 6.09159 33.0083V92.225C3.13081 92.225 0.708252 94.6474 0.708252 97.6083V102.992C0.708252 105.952 3.13081 108.375 6.09159 108.375H20.9496L13.1438 127.917C12.4708 129.558 12.6862 131.443 13.6821 132.923C14.678 134.403 16.3468 135.292 18.1502 135.292H25.7946C28.0287 135.292 29.9936 133.973 30.8011 131.9L33.762 124.525H102.238L105.199 131.9C106.006 133.973 107.971 135.292 110.205 135.292H117.85C119.653 135.292 121.322 134.403 122.318 132.923C123.314 131.443 123.529 129.558 122.856 127.917L115.05 108.375H129.908C132.869 108.375 135.292 105.952 135.292 102.992V97.6083C135.292 94.6474 132.869 92.225 129.908 92.225V33.0083C132.869 33.0083 135.292 30.5858 135.292 27.625ZM67.9999 6.09166C84.3384 6.09166 97.6083 19.3615 97.6083 35.7C97.6083 52.0384 84.3384 65.3083 67.9999 65.3083C51.6615 65.3083 38.3916 52.0384 38.3916 35.7C38.3916 19.3615 51.6615 6.09166 67.9999 6.09166ZM102.857 33.0083H124.525V92.225H108.375V86.8417H113.758C116.719 86.8417 119.142 84.4191 119.142 81.4583V43.775C119.142 40.8141 116.719 38.3917 113.758 38.3917H102.857C102.911 37.5034 102.992 36.6151 102.992 35.7C102.992 34.7847 102.911 33.8965 102.857 33.0083ZM113.758 43.775V81.4583H107.621C106.679 79.8702 104.983 78.7667 102.992 78.7667H81.4583C79.4665 78.7667 77.7707 79.8702 76.8287 81.4583H22.2416V68C22.2416 66.5196 21.0303 65.3083 19.5499 65.3083C18.0695 65.3083 16.8583 66.5196 16.8583 68V81.4583C16.8583 84.4191 19.2808 86.8417 22.2416 86.8417H76.0749V92.225H11.4749V33.0083H33.1428C33.0891 33.8965 33.0083 34.7847 33.0083 35.7C33.0083 36.6151 33.0891 37.5034 33.1428 38.3917H22.2416C19.2808 38.3917 16.8583 40.8141 16.8583 43.775V57.2333C16.8583 58.7137 18.0695 59.925 19.5499 59.925C21.0303 59.925 22.2416 58.7137 22.2416 57.2333V43.775H33.9772C37.6379 59.1712 51.5 70.6917 67.9999 70.6917C84.4998 70.6917 98.362 59.1712 102.023 43.775H113.758ZM102.992 84.15V92.225H81.4583V84.15H102.992ZM6.09159 22.2417H35.6999C34.9731 23.9644 34.4349 25.7677 33.9772 27.625H6.09159V22.2417ZM25.7946 129.908H18.1502L26.7636 108.375H34.408L25.7946 129.908ZM117.85 129.908H110.205L106.545 120.784L101.592 108.375H109.236L117.85 129.908ZM129.908 102.992H86.8416C85.3612 102.992 84.1499 104.203 84.1499 105.683C84.1499 107.164 85.3612 108.375 86.8416 108.375H95.778L100.085 119.142H35.9153L40.2219 108.375H76.075C77.5553 108.375 78.7666 107.164 78.7666 105.683C78.7666 104.203 77.5553 102.992 76.075 102.992H6.09159V97.6083H129.908V102.992ZM102.023 27.625C101.565 25.7677 101.027 23.9644 100.3 22.2417H129.908V27.625H102.023Z" fill="#07183E"/>
<path d="M25.7946 129.908H18.1502L26.7636 108.375H34.408L25.7946 129.908Z" fill="#B5F4F4"/>
<path d="M86.8416 108.375C85.3612 108.375 84.1499 107.164 84.1499 105.683H78.7666C78.7666 107.164 77.5553 108.375 76.075 108.375H40.2219L35.9153 119.142H100.085L95.778 108.375H86.8416Z" fill="#66B8C6"/>
<path d="M117.85 129.908H110.205L106.545 120.784L101.592 108.375H109.236L117.85 129.908Z" fill="#B5F4F4"/>
<path d="M86.8416 102.992H129.908V97.6083H6.09159V102.992H76.075C77.5553 102.992 78.7666 104.203 78.7666 105.683H84.1499C84.1499 104.203 85.3612 102.992 86.8416 102.992Z" fill="#B5F4F4"/>
<path d="M102.992 84.15V92.225H81.4583V84.15H102.992Z" fill="#70CCCC"/>
<path d="M102.857 33.0083H124.525V92.225H108.375V86.8417H113.758C116.719 86.8417 119.142 84.4191 119.142 81.4583V43.775C119.142 40.8141 116.719 38.3917 113.758 38.3917H102.857C102.911 37.5034 102.992 36.6151 102.992 35.7C102.992 34.7847 102.911 33.8965 102.857 33.0083Z" fill="#B5F4F4"/>
<path d="M16.8583 68C16.8583 66.5196 18.0695 65.3083 19.5499 65.3083V59.925C18.0695 59.925 16.8583 58.7137 16.8583 57.2333V43.775C16.8583 40.8141 19.2808 38.3917 22.2416 38.3917H33.1428C33.0891 37.5034 33.0083 36.6151 33.0083 35.7C33.0083 34.7847 33.0891 33.8965 33.1428 33.0083H11.4749V92.225H76.0749V86.8417H22.2416C19.2808 86.8417 16.8583 84.4191 16.8583 81.4583V68Z" fill="#B5F4F4"/>
<path d="M6.09159 22.2417H35.6999C34.9731 23.9644 34.4349 25.7677 33.9772 27.625H6.09159V22.2417Z" fill="#B5F4F4"/>
<path d="M67.9999 6.09166C84.3384 6.09166 97.6083 19.3615 97.6083 35.7C97.6083 52.0384 84.3384 65.3083 67.9999 65.3083C51.6615 65.3083 38.3916 52.0384 38.3916 35.7C38.3916 19.3615 51.6615 6.09166 67.9999 6.09166Z" fill="#70CCCC"/>
<path d="M102.023 27.625C101.565 25.7677 101.027 23.9644 100.3 22.2417H129.908V27.625H102.023Z" fill="#B5F4F4"/>
<path d="M75.5099 39.51H73.9299L73.3699 38.97C75.3299 36.69 76.5099 33.73 76.5099 30.51C76.5099 23.33 70.6899 17.51 63.5099 17.51C56.3299 17.51 50.5099 23.33 50.5099 30.51C50.5099 37.69 56.3299 43.51 63.5099 43.51C66.7299 43.51 69.6899 42.33 71.9699 40.37L72.5099 40.93V42.51L82.5099 52.49L85.4899 49.51L75.5099 39.51ZM63.5099 39.51C58.5299 39.51 54.5099 35.49 54.5099 30.51C54.5099 25.53 58.5299 21.51 63.5099 21.51C68.4899 21.51 72.5099 25.53 72.5099 30.51C72.5099 35.49 68.4899 39.51 63.5099 39.51Z" fill="#07183E"/>
</g>
<defs>
<clipPath id="clip0_213_57">
<rect width="136" height="136" fill="white"/>
</clipPath>
</defs>
</svg>
