<svg preserveAspectRatio="none" width="100%" height="100%" overflow="visible" style="display: block;" viewBox="0 0 85.1042 85.1042" fill="none" xmlns="http://www.w3.org/2000/svg">
<g id="Vector">
<path d="M85.1042 17.0208V13.6167C85.1042 11.7443 83.5723 10.2125 81.7 10.2125H61.1729C57.224 4.08493 50.3647 0 42.5521 0C34.7395 0 27.8801 4.08493 23.9313 10.2125H3.40417C1.53191 10.2125 0 11.7443 0 13.6167V17.0208C0 18.8931 1.53191 20.425 3.40417 20.425V57.8708C1.53191 57.8708 0 59.4026 0 61.275V64.6792C0 66.5514 1.53191 68.0833 3.40417 68.0833H12.7997L7.86363 80.4405C7.4381 81.4787 7.57431 82.6702 8.20406 83.6063C8.83381 84.5425 9.88911 85.1042 11.0295 85.1042H15.8634C17.2762 85.1042 18.5187 84.2702 19.0293 82.9595L20.9017 78.2958H64.2026L66.0749 82.9595C66.5855 84.2702 67.828 85.1042 69.2408 85.1042H74.0747C75.2151 85.1042 76.2704 84.5424 76.9002 83.6063C77.5299 82.6702 77.6661 81.4787 77.2406 80.4405L72.3045 68.0833H81.7C83.5723 68.0833 85.1042 66.5514 85.1042 64.6792V61.275C85.1042 59.4026 83.5723 57.8708 81.7 57.8708V20.425C83.5723 20.425 85.1042 18.8931 85.1042 17.0208ZM42.5521 3.40417C52.8837 3.40417 61.275 11.7954 61.275 22.1271C61.275 32.4587 52.8837 40.85 42.5521 40.85C32.2204 40.85 23.8292 32.4587 23.8292 22.1271C23.8292 11.7954 32.2204 3.40417 42.5521 3.40417ZM64.5941 20.425H78.2958V57.8708H68.0833V54.4667H71.4875C73.3598 54.4667 74.8917 52.9348 74.8917 51.0625V27.2333C74.8917 25.361 73.3598 23.8292 71.4875 23.8292H64.5941C64.6281 23.2674 64.6792 22.7057 64.6792 22.1271C64.6792 21.5483 64.6281 20.9866 64.5941 20.425ZM71.4875 27.2333V51.0625H67.6067C67.011 50.0582 65.9387 49.3604 64.6792 49.3604H51.0625C49.803 49.3604 48.7306 50.0582 48.135 51.0625H13.6167V42.5521C13.6167 41.616 12.8507 40.85 11.9146 40.85C10.9785 40.85 10.2125 41.616 10.2125 42.5521V51.0625C10.2125 52.9348 11.7444 54.4667 13.6167 54.4667H47.6583V57.8708H6.80833V20.425H20.5101C20.4761 20.9866 20.425 21.5483 20.425 22.1271C20.425 22.7057 20.4761 23.2674 20.5101 23.8292H13.6167C11.7444 23.8292 10.2125 25.361 10.2125 27.2333V35.7437C10.2125 36.6799 10.9785 37.4458 11.9146 37.4458C12.8507 37.4458 13.6167 36.6799 13.6167 35.7437V27.2333H21.0377C23.3525 36.9692 32.1183 44.2542 42.5521 44.2542C52.9859 44.2542 61.7516 36.9692 64.0664 27.2333H71.4875ZM64.6792 52.7646V57.8708H51.0625V52.7646H64.6792ZM3.40417 13.6167H22.1271C21.6675 14.706 21.3272 15.8464 21.0377 17.0208H3.40417V13.6167ZM15.8634 81.7H11.0295L16.4762 68.0833H21.3101L15.8634 81.7ZM74.0747 81.7H69.2407L66.9259 75.9299L63.794 68.0833H68.628L74.0747 81.7ZM81.7 64.6792H54.4667C53.5305 64.6792 52.7646 65.4451 52.7646 66.3812C52.7646 67.3174 53.5305 68.0833 54.4667 68.0833H60.1176L62.8409 74.8917H22.2633L24.9866 68.0833H47.6584C48.5945 68.0833 49.3604 67.3174 49.3604 66.3812C49.3604 65.4451 48.5945 64.6792 47.6584 64.6792H3.40417V61.275H81.7V64.6792ZM64.0664 17.0208C63.777 15.8464 63.4367 14.706 62.9771 13.6167H81.7V17.0208H64.0664Z" fill="#07183E"/>
<path d="M15.8634 81.7H11.0295L16.4762 68.0833H21.3101L15.8634 81.7Z" fill="#B5F4F4"/>
<path d="M54.4667 68.0833C53.5305 68.0833 52.7646 67.3174 52.7646 66.3812H49.3604C49.3604 67.3174 48.5945 68.0833 47.6584 68.0833H24.9866L22.2633 74.8917H62.8409L60.1176 68.0833H54.4667Z" fill="#66B8C6"/>
<path d="M74.0747 81.7H69.2407L66.9259 75.9299L63.794 68.0833H68.628L74.0747 81.7Z" fill="#B5F4F4"/>
<path d="M54.4667 64.6792H81.7V61.275H3.40417V64.6792H47.6584C48.5945 64.6792 49.3604 65.4451 49.3604 66.3812H52.7646C52.7646 65.4451 53.5305 64.6792 54.4667 64.6792Z" fill="#B5F4F4"/>
<path d="M64.6792 52.7646V57.8708H51.0625V52.7646H64.6792Z" fill="#70CCCC"/>
<path d="M64.5941 20.425H78.2958V57.8708H68.0833V54.4667H71.4875C73.3598 54.4667 74.8917 52.9348 74.8917 51.0625V27.2333C74.8917 25.361 73.3598 23.8292 71.4875 23.8292H64.5941C64.6281 23.2674 64.6792 22.7057 64.6792 22.1271C64.6792 21.5483 64.6281 20.9866 64.5941 20.425Z" fill="#B5F4F4"/>
<path d="M10.2125 42.5521C10.2125 41.616 10.9785 40.85 11.9146 40.85V37.4458C10.9785 37.4458 10.2125 36.6799 10.2125 35.7437V27.2333C10.2125 25.361 11.7444 23.8292 13.6167 23.8292H20.5101C20.4761 23.2674 20.425 22.7057 20.425 22.1271C20.425 21.5483 20.4761 20.9866 20.5101 20.425H6.80833V57.8708H47.6583V54.4667H13.6167C11.7444 54.4667 10.2125 52.9348 10.2125 51.0625V42.5521Z" fill="#B5F4F4"/>
<path d="M3.40417 13.6167H22.1271C21.6675 14.706 21.3272 15.8464 21.0377 17.0208H3.40417V13.6167Z" fill="#B5F4F4"/>
<path d="M42.5521 3.40417C52.8837 3.40417 61.275 11.7954 61.275 22.1271C61.275 32.4587 52.8837 40.85 42.5521 40.85C32.2204 40.85 23.8292 32.4587 23.8292 22.1271C23.8292 11.7954 32.2204 3.40417 42.5521 3.40417Z" fill="#70CCCC"/>
<path d="M64.0664 17.0208C63.777 15.8464 63.4367 14.706 62.9771 13.6167H81.7V17.0208H64.0664Z" fill="#B5F4F4"/>
<path d="M47.3011 24.5363H46.3019L45.9478 24.1949C47.1872 22.7531 47.9334 20.8813 47.9334 18.8452C47.9334 14.3049 44.2531 10.6246 39.7128 10.6246C35.1725 10.6246 31.4922 14.3049 31.4922 18.8452C31.4922 23.3855 35.1725 27.0658 39.7128 27.0658C41.749 27.0658 43.6208 26.3196 45.0625 25.0802L45.404 25.4343V26.4334L51.7275 32.7443L53.6119 30.8599L47.3011 24.5363ZM39.7128 24.5363C36.5637 24.5363 34.0216 21.9943 34.0216 18.8452C34.0216 15.6961 36.5637 13.154 39.7128 13.154C42.8619 13.154 45.404 15.6961 45.404 18.8452C45.404 21.9943 42.8619 24.5363 39.7128 24.5363Z" fill="#07183E"/>
</g>
</svg>
