<svg width="136" height="141" viewBox="0 0 136 141" fill="none" xmlns="http://www.w3.org/2000/svg">
<path d="M126.622 65.8176H77.3803C73.5297 65.8176 70.1387 67.7117 68 70.5928C65.8613 67.7093 62.4703 65.8176 58.6197 65.8176H9.37794C8.08111 65.8176 7.03287 66.868 7.03287 68.1676V75.2224H2.34507C1.04825 75.2224 0 76.2729 0 77.5724V138.65C0 139.95 1.04825 141 2.34507 141H133.655C134.952 141 136 139.95 136 138.65V77.5724C136 76.2729 134.952 75.2224 133.655 75.2224H128.967V68.1676C128.967 66.868 127.919 65.8176 126.622 65.8176ZM77.3803 70.5176H124.277V126.9H77.3803C74.7303 126.9 72.3102 127.819 70.3451 129.309V77.5724C70.3451 73.6831 73.5015 70.5176 77.3803 70.5176ZM65.6549 77.5724V129.311C63.6898 127.819 61.2696 126.902 58.6197 126.902H11.723V70.5176H58.6197C62.4985 70.5176 65.6549 73.6831 65.6549 77.5724ZM4.69014 79.9225H7.03287V129.25C7.03287 130.549 8.08111 131.6 9.37794 131.6H58.6197C61.673 131.6 64.2502 133.572 65.2211 136.3H4.69014V79.9225ZM131.31 79.9225V136.3H70.7789C71.7498 133.572 74.3293 131.6 77.3803 131.6H126.622C127.919 131.6 128.967 130.549 128.967 129.25V79.9225H131.31Z" fill="#041B37"/>
<path d="M21.1033 82.2678H42.2042C43.5011 82.2678 44.5493 81.2174 44.5493 79.9178C44.5493 78.6182 43.5011 77.5677 42.2042 77.5677H21.1033C19.8065 77.5677 18.7582 78.6182 18.7582 79.9178C18.7582 81.2174 19.8065 82.2678 21.1033 82.2678ZM21.1033 101.078H37.5188C38.8156 101.078 39.8638 100.027 39.8638 98.7275C39.8638 97.4279 38.8156 96.3775 37.5188 96.3775H21.1033C19.8065 96.3775 18.7582 97.4279 18.7582 98.7275C18.7582 100.027 19.8065 101.078 21.1033 101.078ZM56.2746 96.3775H46.8991C45.6022 96.3775 44.554 97.4279 44.554 98.7275C44.554 100.027 45.6022 101.078 46.8991 101.078H56.2746C57.5715 101.078 58.6197 100.027 58.6197 98.7275C58.6197 97.4279 57.5715 96.3775 56.2746 96.3775ZM56.2746 86.9726H30.4836C29.1867 86.9726 28.1385 88.0231 28.1385 89.3226C28.1385 90.6222 29.1867 91.6727 30.4836 91.6727H56.2746C57.5715 91.6727 58.6197 90.6222 58.6197 89.3226C58.6197 88.0231 57.5715 86.9726 56.2746 86.9726ZM21.1033 91.6727H23.4484C24.7452 91.6727 25.7934 90.6222 25.7934 89.3226C25.7934 88.0231 24.7452 86.9726 23.4484 86.9726H21.1033C19.8065 86.9726 18.7582 88.0231 18.7582 89.3226C18.7582 90.6222 19.8065 91.6727 21.1033 91.6727ZM56.2746 77.5677H51.5845C50.2877 77.5677 49.2394 78.6182 49.2394 79.9178C49.2394 81.2174 50.2877 82.2678 51.5845 82.2678H56.2746C57.5715 82.2678 58.6197 81.2174 58.6197 79.9178C58.6197 78.6182 57.5715 77.5677 56.2746 77.5677ZM21.1033 110.482H44.5493C45.8461 110.482 46.8944 109.432 46.8944 108.132C46.8944 106.833 45.8461 105.782 44.5493 105.782H21.1033C19.8065 105.782 18.7582 106.833 18.7582 108.132C18.7582 109.432 19.8065 110.482 21.1033 110.482ZM56.2746 105.782H53.9296C52.6328 105.782 51.5845 106.833 51.5845 108.132C51.5845 109.432 52.6328 110.482 53.9296 110.482H56.2746C57.5715 110.482 58.6197 109.432 58.6197 108.132C58.6197 106.833 57.5715 105.782 56.2746 105.782ZM30.4836 115.187H21.1033C19.8065 115.187 18.7582 116.238 18.7582 117.537C18.7582 118.837 19.8065 119.887 21.1033 119.887H30.4836C31.7804 119.887 32.8286 118.837 32.8286 117.537C32.8286 116.238 31.7804 115.187 30.4836 115.187ZM56.2746 115.187H39.8638C38.567 115.187 37.5188 116.238 37.5188 117.537C37.5188 118.837 38.567 119.887 39.8638 119.887H56.2746C57.5715 119.887 58.6197 118.837 58.6197 117.537C58.6197 116.238 57.5715 115.187 56.2746 115.187ZM93.8356 82.2467H114.937C116.233 82.2467 117.282 81.1962 117.282 79.8966C117.282 78.5971 116.233 77.5466 114.937 77.5466H93.8356C92.5388 77.5466 91.4906 78.5971 91.4906 79.8966C91.4906 81.1962 92.5388 82.2467 93.8356 82.2467ZM114.937 96.3563H98.5211C97.2243 96.3563 96.176 97.4068 96.176 98.7063C96.176 100.006 97.2243 101.056 98.5211 101.056H114.937C116.233 101.056 117.282 100.006 117.282 98.7063C117.282 97.4068 116.231 96.3563 114.937 96.3563ZM79.7652 101.056H89.1408C90.4376 101.056 91.4859 100.006 91.4859 98.7063C91.4859 97.4068 90.4376 96.3563 89.1408 96.3563H79.7652C78.4684 96.3563 77.4201 97.4068 77.4201 98.7063C77.4201 100.006 78.4684 101.056 79.7652 101.056ZM79.7652 91.6515H105.556C106.853 91.6515 107.901 90.6011 107.901 89.3015C107.901 88.0019 106.853 86.9515 105.556 86.9515H79.7652C78.4684 86.9515 77.4201 88.0019 77.4201 89.3015C77.4201 90.6011 78.4684 91.6515 79.7652 91.6515ZM114.937 86.9515H112.592C111.295 86.9515 110.246 88.0019 110.246 89.3015C110.246 90.6011 111.295 91.6515 112.592 91.6515H114.937C116.233 91.6515 117.282 90.6011 117.282 89.3015C117.282 88.0019 116.231 86.9515 114.937 86.9515ZM79.7652 82.2467H84.4554C85.7522 82.2467 86.8004 81.1962 86.8004 79.8966C86.8004 78.5971 85.7522 77.5466 84.4554 77.5466H79.7652C78.4684 77.5466 77.4201 78.5971 77.4201 79.8966C77.4201 81.1962 78.4684 82.2467 79.7652 82.2467ZM114.937 105.761H91.4906C90.1937 105.761 89.1455 106.812 89.1455 108.111C89.1455 109.411 90.1937 110.461 91.4906 110.461H114.937C116.233 110.461 117.282 109.411 117.282 108.111C117.282 106.812 116.231 105.761 114.937 105.761ZM79.7652 110.461H82.1103C83.4071 110.461 84.4554 109.411 84.4554 108.111C84.4554 106.812 83.4071 105.761 82.1103 105.761H79.7652C78.4684 105.761 77.4201 106.812 77.4201 108.111C77.4201 109.411 78.4684 110.461 79.7652 110.461ZM114.937 115.166H105.556C104.259 115.166 103.211 116.216 103.211 117.516C103.211 118.816 104.259 119.866 105.556 119.866H114.937C116.233 119.866 117.282 118.816 117.282 117.516C117.282 116.216 116.231 115.166 114.937 115.166ZM79.7652 119.866H96.176C97.4728 119.866 98.5211 118.816 98.5211 117.516C98.5211 116.216 97.4728 115.166 96.176 115.166H79.7652C78.4684 115.166 77.4201 116.216 77.4201 117.516C77.4201 118.816 78.4684 119.866 79.7652 119.866Z" fill="#041B37"/>
<path d="M68 57.2822C53.2677 57.2822 41.3248 45.314 41.3248 30.5505C41.3248 15.787 53.2677 3.81881 68 3.81881C82.7323 3.81881 94.6752 15.787 94.6752 30.5505C94.6752 45.314 82.7323 57.2822 68 57.2822ZM68 61.101C84.837 61.101 98.4859 47.4232 98.4859 30.5505C98.4859 13.6779 84.837 0 68 0C51.1631 0 37.5141 13.6779 37.5141 30.5505C37.5141 47.4232 51.1631 61.101 68 61.101Z" fill="#041B37"/>
<path d="M57.5399 22.0962C57.511 22.6164 57.9393 23.0378 58.4592 23.0378H61.6011C62.1272 23.0378 62.5456 22.6079 62.6163 22.0854C62.9553 19.5797 64.6713 17.7534 67.7303 17.7534C70.3427 17.7534 72.7374 19.0624 72.7374 22.2136C72.7374 24.6377 71.3103 25.7527 69.0607 27.4496C66.4966 29.3161 64.4647 31.4978 64.6098 35.0369L64.6212 35.8648C64.6283 36.3869 65.0527 36.8064 65.5738 36.8064H68.6644C69.1905 36.8064 69.617 36.379 69.617 35.8517V35.4489C69.617 32.7098 70.6572 31.9099 73.4631 29.7767C75.7853 28.0071 78.2044 26.0436 78.2044 21.9227C78.2044 16.1535 73.3422 13.3658 68.0205 13.3658C63.192 13.3658 57.9002 15.6213 57.5399 22.0962ZM63.4729 44.1027C63.4729 46.1389 65.0936 47.642 67.3191 47.642C69.6412 47.642 71.2377 46.1389 71.2377 44.1027C71.2377 41.994 69.6412 40.5153 67.3191 40.5153C65.0936 40.5153 63.4729 41.994 63.4729 44.1027Z" fill="#041B37"/>
<path fill-rule="evenodd" clip-rule="evenodd" d="M65.6549 77.5724V129.311C63.6898 127.819 61.2696 126.902 58.6197 126.902H11.723V70.5176H58.6197C62.4985 70.5176 65.6549 73.6831 65.6549 77.5724ZM42.2042 82.2678H21.1033C19.8065 82.2678 18.7582 81.2174 18.7582 79.9178C18.7582 78.6182 19.8065 77.5677 21.1033 77.5677H42.2042C43.5011 77.5677 44.5493 78.6182 44.5493 79.9178C44.5493 81.2174 43.5011 82.2678 42.2042 82.2678ZM37.5188 101.078H21.1033C19.8065 101.078 18.7582 100.027 18.7582 98.7275C18.7582 97.4279 19.8065 96.3775 21.1033 96.3775H37.5188C38.8156 96.3775 39.8638 97.4279 39.8638 98.7275C39.8638 100.027 38.8156 101.078 37.5188 101.078ZM46.8991 96.3775H56.2746C57.5715 96.3775 58.6197 97.4279 58.6197 98.7275C58.6197 100.027 57.5715 101.078 56.2746 101.078H46.8991C45.6022 101.078 44.554 100.027 44.554 98.7275C44.554 97.4279 45.6022 96.3775 46.8991 96.3775ZM30.4836 86.9726H56.2746C57.5715 86.9726 58.6197 88.0231 58.6197 89.3226C58.6197 90.6222 57.5715 91.6727 56.2746 91.6727H30.4836C29.1867 91.6727 28.1385 90.6222 28.1385 89.3226C28.1385 88.0231 29.1867 86.9726 30.4836 86.9726ZM23.4484 91.6727H21.1033C19.8065 91.6727 18.7582 90.6222 18.7582 89.3226C18.7582 88.0231 19.8065 86.9726 21.1033 86.9726H23.4484C24.7452 86.9726 25.7934 88.0231 25.7934 89.3226C25.7934 90.6222 24.7452 91.6727 23.4484 91.6727ZM51.5845 77.5677H56.2746C57.5715 77.5677 58.6197 78.6182 58.6197 79.9178C58.6197 81.2174 57.5715 82.2678 56.2746 82.2678H51.5845C50.2877 82.2678 49.2394 81.2174 49.2394 79.9178C49.2394 78.6182 50.2877 77.5677 51.5845 77.5677ZM44.5493 110.482H21.1033C19.8065 110.482 18.7582 109.432 18.7582 108.132C18.7582 106.833 19.8065 105.782 21.1033 105.782H44.5493C45.8461 105.782 46.8944 106.833 46.8944 108.132C46.8944 109.432 45.8461 110.482 44.5493 110.482ZM53.9296 105.782H56.2746C57.5715 105.782 58.6197 106.833 58.6197 108.132C58.6197 109.432 57.5715 110.482 56.2746 110.482H53.9296C52.6328 110.482 51.5845 109.432 51.5845 108.132C51.5845 106.833 52.6328 105.782 53.9296 105.782ZM21.1033 115.187H30.4836C31.7804 115.187 32.8286 116.238 32.8286 117.537C32.8286 118.837 31.7804 119.887 30.4836 119.887H21.1033C19.8065 119.887 18.7582 118.837 18.7582 117.537C18.7582 116.238 19.8065 115.187 21.1033 115.187ZM39.8638 115.187H56.2746C57.5715 115.187 58.6197 116.238 58.6197 117.537C58.6197 118.837 57.5715 119.887 56.2746 119.887H39.8638C38.567 119.887 37.5188 118.837 37.5188 117.537C37.5188 116.238 38.567 115.187 39.8638 115.187Z" fill="#E2C4EF"/>
<path fill-rule="evenodd" clip-rule="evenodd" d="M77.3803 70.5176H124.277V126.9H77.3803C74.7303 126.9 72.3102 127.819 70.3451 129.309V77.5724C70.3451 73.6831 73.5015 70.5176 77.3803 70.5176ZM114.937 82.2467H93.8356C92.5388 82.2467 91.4906 81.1962 91.4906 79.8966C91.4906 78.5971 92.5388 77.5466 93.8356 77.5466H114.937C116.233 77.5466 117.282 78.5971 117.282 79.8966C117.282 81.1962 116.233 82.2467 114.937 82.2467ZM98.5211 96.3563H114.937C116.231 96.3563 117.282 97.4068 117.282 98.7063C117.282 100.006 116.233 101.056 114.937 101.056H98.5211C97.2243 101.056 96.176 100.006 96.176 98.7063C96.176 97.4068 97.2243 96.3563 98.5211 96.3563ZM89.1408 101.056H79.7652C78.4684 101.056 77.4201 100.006 77.4201 98.7063C77.4201 97.4068 78.4684 96.3563 79.7652 96.3563H89.1408C90.4376 96.3563 91.4859 97.4068 91.4859 98.7063C91.4859 100.006 90.4376 101.056 89.1408 101.056ZM105.556 91.6515H79.7652C78.4684 91.6515 77.4201 90.6011 77.4201 89.3015C77.4201 88.0019 78.4684 86.9515 79.7652 86.9515H105.556C106.853 86.9515 107.901 88.0019 107.901 89.3015C107.901 90.6011 106.853 91.6515 105.556 91.6515ZM112.592 86.9515H114.937C116.231 86.9515 117.282 88.0019 117.282 89.3015C117.282 90.6011 116.233 91.6515 114.937 91.6515H112.592C111.295 91.6515 110.246 90.6011 110.246 89.3015C110.246 88.0019 111.295 86.9515 112.592 86.9515ZM84.4554 82.2467H79.7652C78.4684 82.2467 77.4201 81.1962 77.4201 79.8966C77.4201 78.5971 78.4684 77.5466 79.7652 77.5466H84.4554C85.7522 77.5466 86.8004 78.5971 86.8004 79.8966C86.8004 81.1962 85.7522 82.2467 84.4554 82.2467ZM91.4906 105.761H114.937C116.231 105.761 117.282 106.812 117.282 108.111C117.282 109.411 116.233 110.461 114.937 110.461H91.4906C90.1937 110.461 89.1455 109.411 89.1455 108.111C89.1455 106.812 90.1937 105.761 91.4906 105.761ZM82.1103 110.461H79.7652C78.4684 110.461 77.4201 109.411 77.4201 108.111C77.4201 106.812 78.4684 105.761 79.7652 105.761H82.1103C83.4071 105.761 84.4554 106.812 84.4554 108.111C84.4554 109.411 83.4071 110.461 82.1103 110.461ZM105.556 115.166H114.937C116.231 115.166 117.282 116.216 117.282 117.516C117.282 118.816 116.233 119.866 114.937 119.866H105.556C104.259 119.866 103.211 118.816 103.211 117.516C103.211 116.216 104.259 115.166 105.556 115.166ZM96.176 119.866H79.7652C78.4684 119.866 77.4201 118.816 77.4201 117.516C77.4201 116.216 78.4684 115.166 79.7652 115.166H96.176C97.4728 115.166 98.5211 116.216 98.5211 117.516C98.5211 118.816 97.4728 119.866 96.176 119.866Z" fill="#E2C4EF"/>
<path fill-rule="evenodd" clip-rule="evenodd" d="M68 57.2822C53.2677 57.2822 41.3248 45.314 41.3248 30.5505C41.3248 15.787 53.2677 3.81881 68 3.81881C82.7323 3.81881 94.6752 15.787 94.6752 30.5505C94.6752 45.314 82.7323 57.2822 68 57.2822ZM58.4592 23.0378C57.9393 23.0378 57.511 22.6164 57.5399 22.0962C57.9002 15.6213 63.192 13.3658 68.0205 13.3658C73.3422 13.3658 78.2044 16.1535 78.2044 21.9227C78.2044 26.0436 75.7853 28.0071 73.4631 29.7767C70.6572 31.9099 69.617 32.7098 69.617 35.4489V35.8517C69.617 36.379 69.1905 36.8064 68.6644 36.8064H65.5738C65.0527 36.8064 64.6283 36.3869 64.6212 35.8648L64.6098 35.0369C64.4647 31.4978 66.4966 29.3161 69.0607 27.4496C71.3103 25.7527 72.7374 24.6377 72.7374 22.2136C72.7374 19.0624 70.3427 17.7534 67.7303 17.7534C64.6713 17.7534 62.9553 19.5797 62.6163 22.0854C62.5456 22.6079 62.1272 23.0378 61.6011 23.0378H58.4592ZM67.3191 47.642C65.0936 47.642 63.4729 46.1389 63.4729 44.1027C63.4729 41.994 65.0936 40.5153 67.3191 40.5153C69.6412 40.5153 71.2377 41.994 71.2377 44.1027C71.2377 46.1389 69.6412 47.642 67.3191 47.642Z" fill="#D7B8EA"/>
</svg>
