<svg width="52" height="56" viewBox="0 0 52 56" fill="none" xmlns="http://www.w3.org/2000/svg">
<path d="M49.7325 23.957C49.1675 23.957 48.6024 23.7615 48.1504 23.4194L26 4.70343L3.84964 23.4194C2.94555 24.1524 1.5329 24.1524 0.6288 23.3706C-0.21879 22.5887 -0.21879 21.367 0.685306 20.5851L24.4178 0.549752C25.3219 -0.183251 26.6781 -0.183251 27.5822 0.549752L51.3147 20.5851C52.2188 21.3182 52.2188 22.5887 51.3712 23.3706C50.9191 23.7615 50.2976 23.957 49.7325 23.957ZM44.76 43.015V23.9081C44.76 22.833 43.7429 21.9534 42.4997 21.9534C41.2566 21.9534 40.2395 22.833 40.2395 23.9081V41.0603H33.1763V30.6028C33.1763 29.1857 31.8201 28.0129 30.1814 28.0129H21.8186C20.1799 28.0129 18.8237 29.1857 18.8237 30.6028V41.0603H11.7605V23.9081C11.7605 22.833 10.7434 21.9534 9.50024 21.9534C8.25711 21.9534 7.24 22.833 7.24 23.9081V43.015C7.24 44.0901 8.25711 44.9697 9.50024 44.9697H21.084C22.3271 44.9697 23.3442 44.0901 23.3442 43.015V31.9223H28.7123V43.015C28.7123 44.0901 29.7294 44.9697 30.9725 44.9697H42.5563C43.7994 44.9697 44.76 44.0901 44.76 43.015Z" fill="#082353"/>
<path d="M44.76 40.4446V37.3333H46.9539C48.2922 37.3333 49.5757 37.825 50.522 38.7002C51.4684 39.5754 52 40.7625 52 42.0002V48.2227C52 49.4604 51.4684 50.6474 50.522 51.5226C49.5757 52.3978 48.2922 52.8895 46.9539 52.8895H31.8158V54.4451C31.8158 55.0736 31.4054 55.643 30.778 55.8825C30.4704 55.9996 30.1323 56.03 29.8061 55.97C29.4799 55.9099 29.1802 55.762 28.9446 55.545L25.5805 52.4337C25.4241 52.2894 25.3001 52.118 25.2155 51.9293C25.131 51.7405 25.0875 51.5382 25.0877 51.3339C25.0877 50.9357 25.2526 50.5374 25.5805 50.2341L28.9446 47.1228C29.18 46.9055 29.4797 46.7574 29.806 46.6973C30.1323 46.6372 30.4705 46.6678 30.778 46.7853C31.0852 46.9032 31.3477 47.1027 31.5324 47.3585C31.7171 47.6143 31.8157 47.915 31.8158 48.2227V49.7783H46.9539C47.8841 49.7783 48.636 49.0829 48.636 48.2227V42.0002C48.636 41.5876 48.4587 41.1919 48.1433 40.9002C47.8279 40.6085 47.4 40.4446 46.9539 40.4446H44.76Z" fill="#082353"/>
</svg>
