<svg width="136" height="136" viewBox="0 0 136 136" fill="none" xmlns="http://www.w3.org/2000/svg">
<g clip-path="url(#clip0_213_62)">
<path d="M135.292 27.625V22.2417C135.292 19.2807 132.869 16.8583 129.908 16.8583H97.4468C91.2021 7.16822 80.3547 0.708328 67.9999 0.708328C55.6451 0.708328 44.7978 7.16822 38.5531 16.8583H6.09159C3.13081 16.8583 0.708252 19.2807 0.708252 22.2417V27.625C0.708252 30.5858 3.13081 33.0083 6.09159 33.0083V92.225C3.13081 92.225 0.708252 94.6474 0.708252 97.6083V102.992C0.708252 105.952 3.13081 108.375 6.09159 108.375H20.9496L13.1438 127.917C12.4708 129.558 12.6862 131.443 13.6821 132.923C14.678 134.403 16.3468 135.292 18.1502 135.292H25.7946C28.0287 135.292 29.9936 133.973 30.8011 131.9L33.762 124.525H102.238L105.199 131.9C106.006 133.973 107.971 135.292 110.205 135.292H117.85C119.653 135.292 121.322 134.403 122.318 132.923C123.314 131.443 123.529 129.558 122.856 127.917L115.05 108.375H129.908C132.869 108.375 135.292 105.952 135.292 102.992V97.6083C135.292 94.6474 132.869 92.225 129.908 92.225V33.0083C132.869 33.0083 135.292 30.5858 135.292 27.625ZM67.9999 6.09166C84.3384 6.09166 97.6083 19.3615 97.6083 35.7C97.6083 52.0384 84.3384 65.3083 67.9999 65.3083C51.6615 65.3083 38.3916 52.0384 38.3916 35.7C38.3916 19.3615 51.6615 6.09166 67.9999 6.09166ZM102.857 33.0083H124.525V92.225H108.375V86.8417H113.758C116.719 86.8417 119.142 84.4191 119.142 81.4583V43.775C119.142 40.8141 116.719 38.3917 113.758 38.3917H102.857C102.911 37.5034 102.992 36.6151 102.992 35.7C102.992 34.7847 102.911 33.8965 102.857 33.0083ZM113.758 43.775V81.4583H107.621C106.679 79.8702 104.983 78.7667 102.992 78.7667H81.4583C79.4665 78.7667 77.7707 79.8702 76.8287 81.4583H22.2416V68C22.2416 66.5196 21.0303 65.3083 19.5499 65.3083C18.0695 65.3083 16.8583 66.5196 16.8583 68V81.4583C16.8583 84.4191 19.2808 86.8417 22.2416 86.8417H76.0749V92.225H11.4749V33.0083H33.1428C33.1295 33.2276 33.1146 33.4468 33.0997 33.6665C33.0541 34.3367 33.0083 35.0107 33.0083 35.7C33.0083 36.3891 33.0541 37.063 33.0997 37.7332C33.1146 37.9529 33.1295 38.1723 33.1428 38.3917H22.2416C19.2808 38.3917 16.8583 40.8141 16.8583 43.775V57.2333C16.8583 58.7137 18.0695 59.925 19.5499 59.925C21.0303 59.925 22.2416 58.7137 22.2416 57.2333V43.775H33.9772C37.6379 59.1712 51.5 70.6917 67.9999 70.6917C84.4998 70.6917 98.362 59.1712 102.023 43.775H113.758ZM102.992 84.15V92.225H81.4583V84.15H102.992ZM6.09159 22.2417H35.6999C34.9731 23.9644 34.4349 25.7677 33.9772 27.625H6.09159V22.2417ZM25.7946 129.908H18.1502L26.7636 108.375H34.408L25.7946 129.908ZM117.85 129.908H110.205L106.545 120.784L101.592 108.375H109.236L117.85 129.908ZM129.908 102.992H86.8416C85.3612 102.992 84.1499 104.203 84.1499 105.683C84.1499 107.164 85.3612 108.375 86.8416 108.375H95.778L100.085 119.142H35.9153L40.2219 108.375H76.075C77.5553 108.375 78.7666 107.164 78.7666 105.683C78.7666 104.203 77.5553 102.992 76.075 102.992H6.09159V97.6083H129.908V102.992ZM102.023 27.625C101.565 25.7677 101.027 23.9644 100.3 22.2417H129.908V27.625H102.023Z" fill="#172331"/>
<path d="M25.7946 129.908H18.1502L26.7636 108.375H34.408L25.7946 129.908Z" fill="#F9DEAC"/>
<path d="M117.85 129.908H110.205L106.545 120.784L101.592 108.375H109.236L117.85 129.908Z" fill="#F9DEAC"/>
<path d="M102.857 33.0083H124.525V92.225H108.375V86.8417H113.758C116.719 86.8417 119.142 84.4191 119.142 81.4583V43.775C119.142 40.8141 116.719 38.3917 113.758 38.3917H102.857C102.911 37.5034 102.992 36.6151 102.992 35.7C102.992 34.7847 102.911 33.8965 102.857 33.0083Z" fill="url(#paint0_linear_213_62)" style="mix-blend-mode:lighten"/>
<path d="M102.023 27.625C101.565 25.7677 101.027 23.9644 100.3 22.2417H129.908V27.625H102.023Z" fill="#F9DEAC"/>
<path d="M6.09159 22.2417H35.6999C34.9731 23.9644 34.4349 25.7677 33.9772 27.625H6.09159V22.2417Z" fill="#F9DEAC"/>
<path d="M102.992 84.15V92.225H81.4583V84.15H102.992Z" fill="#E2C082"/>
<path fill-rule="evenodd" clip-rule="evenodd" d="M16.8583 68C16.8583 66.5196 18.0695 65.3083 19.5499 65.3083V59.925C18.0695 59.925 16.8583 58.7137 16.8583 57.2333V43.775C16.8583 40.8141 19.2808 38.3917 22.2416 38.3917H33.1428C33.1295 38.1723 33.1146 37.9529 33.0997 37.7332C33.0541 37.063 33.0083 36.3891 33.0083 35.7C33.0083 35.0107 33.0541 34.3367 33.0997 33.6665C33.1146 33.4468 33.1295 33.2276 33.1428 33.0083H11.4749V92.225H76.0749V86.8417H22.2416C19.2808 86.8417 16.8583 84.4191 16.8583 81.4583V68Z" fill="url(#paint1_linear_213_62)" style="mix-blend-mode:lighten"/>
<path d="M86.8416 102.992H129.908V97.6083H6.09159V102.992H76.075C77.5553 102.992 78.7666 104.203 78.7666 105.683H84.1499C84.1499 104.203 85.3612 102.992 86.8416 102.992Z" fill="#F9DEAC"/>
<g clip-path="url(#paint2_angular_213_62_clip_path)" data-figma-skip-parse="true"><g transform="matrix(0 0.0672917 -0.0672917 0 67.9999 68)"><foreignObject x="-1014.86" y="-1014.86" width="2029.72" height="2029.72"><div xmlns="http://www.w3.org/1999/xhtml" style="background:conic-gradient(from 90deg,rgba(220, 161, 128, 1) 0deg,rgba(236, 173, 137, 1) 19.0385deg,rgba(134, 98, 77, 1) 252.692deg,rgba(220, 161, 128, 1) 360deg);height:100%;width:100%;opacity:1"></div></foreignObject></g></g><path d="M86.8416 108.375C85.3612 108.375 84.1499 107.164 84.1499 105.683H78.7666C78.7666 107.164 77.5553 108.375 76.075 108.375H40.2219L35.9153 119.142H100.085L95.778 108.375H86.8416Z" data-figma-gradient-fill="{&#34;type&#34;:&#34;GRADIENT_ANGULAR&#34;,&#34;stops&#34;:[{&#34;color&#34;:{&#34;r&#34;:0.92549020051956177,&#34;g&#34;:0.67843139171600342,&#34;b&#34;:0.53725492954254150,&#34;a&#34;:1.0},&#34;position&#34;:0.052884615957736969},{&#34;color&#34;:{&#34;r&#34;:0.52549022436141968,&#34;g&#34;:0.38521105051040649,&#34;b&#34;:0.30505153536796570,&#34;a&#34;:1.0},&#34;position&#34;:0.70192307233810425}],&#34;stopsVar&#34;:[{&#34;color&#34;:{&#34;r&#34;:0.92549020051956177,&#34;g&#34;:0.67843139171600342,&#34;b&#34;:0.53725492954254150,&#34;a&#34;:1.0},&#34;position&#34;:0.052884615957736969},{&#34;color&#34;:{&#34;r&#34;:0.52549022436141968,&#34;g&#34;:0.38521105051040649,&#34;b&#34;:0.30505153536796570,&#34;a&#34;:1.0},&#34;position&#34;:0.70192307233810425}],&#34;transform&#34;:{&#34;m00&#34;:8.2408563886705519e-15,&#34;m01&#34;:-134.58338928222656,&#34;m02&#34;:135.29164123535156,&#34;m10&#34;:134.58332824707031,&#34;m11&#34;:8.2408521535058156e-15,&#34;m12&#34;:0.70832824707031250},&#34;opacity&#34;:1.0,&#34;blendMode&#34;:&#34;HUE&#34;,&#34;visible&#34;:true}" style="mix-blend-mode:hue"/>
<path d="M67.9999 6.09166C84.3384 6.09166 97.6083 19.3615 97.6083 35.7C97.6083 52.0384 84.3384 65.3083 67.9999 65.3083C51.6615 65.3083 38.3916 52.0384 38.3916 35.7C38.3916 19.3615 51.6615 6.09166 67.9999 6.09166Z" fill="#E2C081"/>
<path d="M68 19.5125C70.755 19.5125 72.9875 21.745 72.9875 24.5C72.9875 27.255 70.755 29.4875 68 29.4875C65.245 29.4875 63.0125 27.255 63.0125 24.5C63.0125 21.745 65.245 19.5125 68 19.5125ZM68 40.8875C75.0538 40.8875 82.4875 44.355 82.4875 45.875V48.4875H68H53.5125V45.875C53.5125 44.355 60.9462 40.8875 68 40.8875ZM68 15C62.7513 15 58.5 19.2512 58.5 24.5C58.5 29.7487 62.7513 34 68 34C73.2488 34 77.5 29.7487 77.5 24.5C77.5 19.2512 73.2488 15 68 15ZM68 36.375C61.6587 36.375 49 39.5575 49 45.875V53H87V45.875C87 39.5575 74.3412 36.375 68 36.375Z" fill="#020D21"/>
<path d="M68 40.8875C75.0538 40.8875 82.4875 44.355 82.4875 45.875V48.4875H68H53.5125V45.875C53.5125 44.355 60.9462 40.8875 68 40.8875Z" fill="#2BA2B7"/>
<path d="M68 19.5125C70.755 19.5125 72.9875 21.745 72.9875 24.5C72.9875 27.255 70.755 29.4875 68 29.4875C65.245 29.4875 63.0125 27.255 63.0125 24.5C63.0125 21.745 65.245 19.5125 68 19.5125Z" fill="#FFCF6A"/>
</g>
<defs>
<clipPath id="paint2_angular_213_62_clip_path"><path d="M86.8416 108.375C85.3612 108.375 84.1499 107.164 84.1499 105.683H78.7666C78.7666 107.164 77.5553 108.375 76.075 108.375H40.2219L35.9153 119.142H100.085L95.778 108.375H86.8416Z"/></clipPath><linearGradient id="paint0_linear_213_62" x1="67.9999" y1="0.708328" x2="67.9999" y2="135.292" gradientUnits="userSpaceOnUse">
<stop stop-color="#938366"/>
<stop offset="0.331731" stop-color="#F9DEAC"/>
</linearGradient>
<linearGradient id="paint1_linear_213_62" x1="67.9999" y1="0.708328" x2="67.9999" y2="135.292" gradientUnits="userSpaceOnUse">
<stop stop-color="#938366"/>
<stop offset="0.341346" stop-color="#F9DEAC"/>
</linearGradient>
<clipPath id="clip0_213_62">
<rect width="136" height="136" fill="white"/>
</clipPath>
</defs>
</svg>
