<svg width="28" height="28" viewBox="0 0 28 28" fill="none" xmlns="http://www.w3.org/2000/svg">
<path d="M3.5 5.83333H5.83333V3.5C4.55 3.5 3.5 4.55 3.5 5.83333ZM3.5 15.1667H5.83333V12.8333H3.5V15.1667ZM8.16667 24.5H10.5V22.1667H8.16667V24.5ZM3.5 10.5H5.83333V8.16667H3.5V10.5ZM15.1667 3.5H12.8333V5.83333H15.1667V3.5ZM22.1667 3.5V5.83333H24.5C24.5 4.55 23.45 3.5 22.1667 3.5ZM5.83333 24.5V22.1667H3.5C3.5 23.45 4.55 24.5 5.83333 24.5ZM3.5 19.8333H5.83333V17.5H3.5V19.8333ZM10.5 3.5H8.16667V5.83333H10.5V3.5ZM12.8333 24.5H15.1667V22.1667H12.8333V24.5ZM22.1667 15.1667H24.5V12.8333H22.1667V15.1667ZM22.1667 24.5C23.45 24.5 24.5 23.45 24.5 22.1667H22.1667V24.5ZM22.1667 10.5H24.5V8.16667H22.1667V10.5ZM22.1667 19.8333H24.5V17.5H22.1667V19.8333ZM17.5 24.5H19.8333V22.1667H17.5V24.5ZM17.5 5.83333H19.8333V3.5H17.5V5.83333ZM8.16667 19.8333H19.8333V8.16667H8.16667V19.8333ZM10.5 10.5H17.5V17.5H10.5V10.5Z" fill="#082353"/>
</svg>
