<svg preserveAspectRatio="none" width="100%" height="100%" overflow="visible" style="display: block;" viewBox="0 0 29.2917 23.75" fill="none" xmlns="http://www.w3.org/2000/svg">
<path id="Vector" d="M2.375 9.5C1.06083 9.5 0 10.5608 0 11.875C0 13.1892 1.06083 14.25 2.375 14.25C3.68917 14.25 4.75 13.1892 4.75 11.875C4.75 10.5608 3.68917 9.5 2.375 9.5ZM2.375 0C1.06083 0 0 1.06083 0 2.375C0 3.68917 1.06083 4.75 2.375 4.75C3.68917 4.75 4.75 3.68917 4.75 2.375C4.75 1.06083 3.68917 0 2.375 0ZM2.375 19C1.06083 19 0 20.0767 0 21.375C0 22.6733 1.07667 23.75 2.375 23.75C3.67333 23.75 4.75 22.6733 4.75 21.375C4.75 20.0767 3.68917 19 2.375 19ZM7.125 22.9583H29.2917V19.7917H7.125V22.9583ZM7.125 13.4583H29.2917V10.2917H7.125V13.4583ZM7.125 0.791667V3.95833H29.2917V0.791667H7.125Z" fill="var(--fill-0, #082353)"/>
</svg>
