<svg preserveAspectRatio="none" width="100%" height="100%" overflow="visible" style="display: block;" viewBox="0 0 211.5 211.5" fill="none" xmlns="http://www.w3.org/2000/svg">
<g id="Vector" filter="url(#filter0_d_0_39)">
<path d="M101.25 135H33.75V157.5H101.25V135Z" fill="var(--fill-0, #082353)"/>
<path d="M168.75 45H101.25V67.5H168.75V45Z" fill="var(--fill-0, #082353)"/>
<path d="M135 90H67.5V112.5H135V90Z" fill="var(--fill-0, #082353)"/>
<path d="M180 0H22.5C10.125 0 0 10.125 0 22.5V180C0 192.375 10.125 202.5 22.5 202.5H180C192.375 202.5 202.5 192.375 202.5 180V22.5C202.5 10.125 192.375 0 180 0ZM180 180H22.5V22.5H180V180Z" fill="var(--fill-0, #082353)"/>
</g>
<defs>
<filter id="filter0_d_0_39" x="0" y="0" width="211.5" height="211.5" filterUnits="userSpaceOnUse" color-interpolation-filters="sRGB">
<feFlood flood-opacity="0" result="BackgroundImageFix"/>
<feColorMatrix in="SourceAlpha" type="matrix" values="0 0 0 0 0 0 0 0 0 0 0 0 0 0 0 0 0 0 127 0" result="hardAlpha"/>
<feOffset dx="9" dy="9"/>
<feComposite in2="hardAlpha" operator="out"/>
<feColorMatrix type="matrix" values="0 0 0 0 0.0313726 0 0 0 0 0.137255 0 0 0 0 0.32549 0 0 0 0.25 0"/>
<feBlend mode="normal" in2="BackgroundImageFix" result="effect1_dropShadow_0_39"/>
<feBlend mode="normal" in="SourceGraphic" in2="effect1_dropShadow_0_39" result="shape"/>
</filter>
</defs>
</svg>
