<svg width="56" height="56" viewBox="0 0 56 56" fill="none" xmlns="http://www.w3.org/2000/svg">
<path d="M23.9167 30.3333C23.9167 31.9433 22.6101 33.25 21.0001 33.25C19.3901 33.25 18.0834 31.9433 18.0834 30.3333C18.0834 28.7233 19.3901 27.4167 21.0001 27.4167C22.6101 27.4167 23.9167 28.7233 23.9167 30.3333ZM35.0001 27.4167C33.3901 27.4167 32.0834 28.7233 32.0834 30.3333C32.0834 31.9433 33.3901 33.25 35.0001 33.25C36.6101 33.25 37.9167 31.9433 37.9167 30.3333C37.9167 28.7233 36.6101 27.4167 35.0001 27.4167ZM51.3334 28C51.3334 40.88 40.8801 51.3333 28.0001 51.3333C15.1201 51.3333 4.66675 40.88 4.66675 28C4.66675 15.12 15.1201 4.66667 28.0001 4.66667C40.8801 4.66667 51.3334 15.12 51.3334 28ZM24.8734 9.61333C28.1401 15.0267 34.0667 18.6667 40.8334 18.6667C41.9067 18.6667 42.9567 18.55 43.9601 18.3867C40.6934 12.9733 34.7667 9.33333 28.0001 9.33333C26.9267 9.33333 25.8767 9.45 24.8734 9.61333ZM10.3134 22.0967C14.3034 19.8333 17.3834 16.1467 18.8534 11.7367C14.8634 14 11.7834 17.6867 10.3134 22.0967ZM46.6667 28C46.6667 26.18 46.3867 24.43 45.8967 22.7733C44.2634 23.1233 42.5834 23.3333 40.8334 23.3333C33.5301 23.3333 27.0201 19.9733 22.7267 14.7233C20.2767 20.6967 15.4001 25.3867 9.33341 27.6733C9.35675 27.7667 9.33341 27.8833 9.33341 28C9.33341 38.29 17.7101 46.6667 28.0001 46.6667C38.2901 46.6667 46.6667 38.29 46.6667 28Z" fill="white"/>
</svg>
